<svg width="1536" height="992" fill="none" xmlns="http://www.w3.org/2000/svg"><g clip-path="url(#a)" stroke-width=".5" stroke-miterlimit="10" stroke-linecap="round"><path d="M-180.5 824.52s108.955-30.677 194.14-58.495c93.195-30.434 168.619-91.301 251.941-49.405 77.103 38.768 120.837 103.157 202.974 90.51 82.138-12.648 181.65 30.038 235.356 60.076 53.705 30.038 142.16-17.316 202.184-94.82 60.023-77.504 151.635-178.686 312.755-136 161.11 42.686 183.23 240.306 274.84 256.116 91.62 15.809 118.79 6.323 118.79 6.323" stroke="url(#b)"/><path d="M1612.48 887.077s-27.7 9.209-118.91-7.453c-14.26-2.619-26.87-9.614-38.6-19.733-63.79-55.083-103.46-199.268-238.94-234.169-159.42-41.066-249.94 58.926-309.689 135.95-59.429 76.654-146.779 123.707-200.293 94.623-53.508-29.088-152.285-70.96-234.17-58.801-81.514 12.224-125.453-51.194-202.097-89.545-82.912-41.472-157.45 19.759-250.504 47.133-42.535 12.513-88.745 27.511-126.288 38.718-41.591 12.402-73.489 20.522-73.489 20.522" stroke="url(#c)"/><path d="M1612.48 875.328s-28.23 8.933-119.04-8.581c-14.22-2.771-26.83-9.863-38.58-20.053-64.28-55.847-106.64-197.861-241.65-231.635-157.72-39.456-247.148 59.356-306.624 135.899-58.834 75.805-145.078 122.556-198.401 94.425-53.31-28.137-151.352-69.195-232.985-57.526-80.89 11.801-125.033-50.645-201.219-88.578-82.502-41.049-156.297 20.316-249.067 44.86-44.807 11.855-91.487 28.036-129.67 39.556-42.149 12.692-75.744 20.428-75.744 20.428" stroke="url(#d)"/><path d="M1612.48 863.579s-28.77 8.657-119.16-9.71c-14.18-2.923-26.79-10.11-38.57-20.372-64.77-56.61-109.82-196.457-244.36-229.102-156.01-37.855-244.356 59.787-303.558 135.85-58.239 74.955-143.378 121.404-196.51 94.226-53.112-27.186-150.443-67.604-231.799-56.25-80.292 11.205-124.615-50.097-200.342-87.612-82.092-40.625-155.265 20.657-247.63 42.588-47.144 11.193-94.23 28.56-133.052 40.394-42.707 12.981-77.999 20.333-77.999 20.333" stroke="url(#e)"/><path d="M1612.48 851.831s-29.3 8.38-119.29-10.839c-14.13-3.075-26.75-10.359-38.55-20.692-65.27-57.374-112.99-195.057-247.06-226.569-154.3-36.264-241.575 60.218-300.502 135.8-57.645 74.105-141.678 120.252-194.619 94.028-52.914-26.235-149.517-65.894-230.614-54.974-79.674 10.728-124.196-49.549-199.464-86.647-81.681-40.201-154.332 20.802-246.193 40.316-49.536 10.523-96.973 29.085-136.434 41.232-43.265 13.271-80.254 20.239-80.254 20.239" stroke="url(#f)"/><path d="M1612.48 840.082s-29.88 8.309-119.41-11.968c-14.1-3.194-26.71-10.606-38.54-21.011-65.76-58.138-116.15-193.661-249.77-224.036-152.58-34.683-238.783 60.648-297.437 135.75-57.049 73.256-139.977 119.101-192.727 93.831-52.716-25.285-148.589-64.184-229.429-53.699-79.056 10.253-123.777-49.001-198.586-85.681-81.271-39.778-153.482 20.766-244.756 38.043-51.978 9.839-99.716 29.61-139.816 42.071-43.824 13.56-82.509 20.145-82.509 20.145" stroke="url(#g)"/><path d="M1612.48 828.333s-30.42 8.068-119.54-13.096c-14.06-3.34-26.67-10.855-38.52-21.331-66.25-58.902-119.31-192.27-252.48-221.502-150.85-33.114-235.991 61.078-294.371 135.7-56.455 72.406-138.277 117.949-190.836 93.632-52.519-24.334-147.661-62.471-228.243-52.424-78.438 9.78-123.358-48.452-197.709-84.715-80.861-39.354-152.7 20.566-243.32 35.772C-7 709.507-54.996 730.503-95.735 743.277c-44.382 13.85-84.764 20.051-84.764 20.051" stroke="url(#h)"/><path d="M1612.48 816.585s-30.96 7.825-119.66-14.226c-14.02-3.486-26.63-11.102-38.51-21.65-66.75-59.666-122.47-190.883-255.19-218.969-149.11-31.554-233.2 61.509-291.305 135.65-55.86 71.557-136.577 116.798-188.945 93.434-52.321-23.383-146.732-60.757-227.058-51.148-77.818 9.309-122.939-47.904-196.831-83.749-80.451-38.931-151.974 20.216-241.882 33.499-56.983 8.418-105.201 30.659-146.58 43.747-44.94 14.139-87.019 19.956-87.019 19.956" stroke="url(#i)"/><path d="M1612.48 804.836s-31.5 7.58-119.79-15.354c-13.98-3.633-26.59-11.351-38.49-21.97-67.24-60.43-125.61-189.502-257.9-216.436-147.37-30.006-230.408 61.939-288.24 135.6-55.265 70.707-134.876 115.646-187.053 93.237-52.123-22.433-145.803-59.042-225.872-49.873-77.199 8.84-122.521-47.356-195.955-82.784-80.04-38.507-151.293 19.733-240.444 31.227C-.8 686.159-49.208 709.667-91.226 723.068c-45.498 14.429-89.274 19.862-89.274 19.862" stroke="url(#j)"/><path d="M1612.48 793.087s-32.04 7.333-119.91-16.483c-13.94-3.779-26.57-11.574-38.48-22.289-67.86-61.052-128.76-188.125-260.61-213.902-145.62-28.47-227.616 62.369-285.174 135.549-54.671 69.858-133.176 114.495-185.162 93.039-51.925-21.482-144.872-57.324-224.687-48.597-76.578 8.373-122.101-46.808-195.077-81.818-79.63-38.084-150.65 19.128-239.007 28.954-62.115 6.908-110.687 31.71-153.344 45.424-46.056 14.718-91.529 19.768-91.529 19.768" stroke="url(#k)"/><path d="M1612.48 781.338s-32.59 7.084-120.04-17.611c-13.9-3.927-26.53-11.821-38.46-22.609-68.37-61.805-131.89-186.755-263.32-211.369-143.87-26.945-224.825 62.8-282.108 135.5-54.076 69.008-131.476 113.343-183.271 92.84-51.727-20.531-143.941-55.605-223.502-47.322-75.956 7.909-121.682-46.259-194.199-80.852-79.22-37.66-150.038 18.415-237.57 26.683-64.719 6.113-113.43 32.234-156.726 46.261-46.614 15.008-93.784 19.674-93.784 19.674" stroke="url(#l)"/><path d="M1612.48 769.59s-33.13 6.832-120.16-18.741c-13.86-4.074-26.5-12.067-38.45-22.928-68.87-62.559-135.02-185.391-266.02-208.836-142.11-25.432-222.043 63.231-279.052 135.45-53.482 68.158-129.776 112.192-181.38 92.642-51.53-19.58-143.01-53.884-222.316-46.046-75.335 7.446-121.264-45.711-193.322-79.886-78.81-37.237-149.45 17.602-236.134 24.41-67.34 5.289-116.171 32.759-160.106 47.1-47.173 15.297-96.04 19.579-96.04 19.579" stroke="url(#m)"/><path d="M1612.48 757.841s-33.67 6.58-120.29-19.869c-13.82-4.222-26.45-12.314-38.43-23.248-69.37-63.313-138.14-184.034-268.73-206.303-140.35-23.932-219.251 63.661-275.987 135.4-52.886 67.309-128.075 111.04-179.488 92.445-51.332-18.63-142.077-52.162-221.131-44.771-74.712 6.985-120.844-45.163-192.444-78.92-78.399-36.814-148.881 16.699-234.697 22.137-69.98 4.434-118.914 33.284-163.488 47.938-47.731 15.587-98.295 19.485-98.295 19.485" stroke="url(#n)"/><path d="M1612.48 746.092s-34.22 6.325-120.41-20.998c-13.79-4.37-26.42-12.56-38.42-23.567-69.87-64.069-141.26-182.683-271.44-203.769-138.57-22.446-216.46 64.091-272.921 135.35-52.292 66.459-126.375 109.888-177.597 92.246-51.134-17.679-141.144-50.437-219.945-43.495-74.089 6.526-120.426-44.615-191.567-77.955-77.989-36.39-148.328 15.718-233.26 19.865-72.633 3.547-121.657 33.809-166.87 48.777-48.29 15.876-100.55 19.391-100.55 19.391" stroke="url(#o)"/><path d="M1612.48 734.344s-34.76 6.067-120.53-22.127c-13.75-4.519-26.39-12.807-38.41-23.887-70.37-64.825-144.37-181.341-274.15-201.236-136.79-20.971-213.668 64.522-269.855 135.3-51.697 65.609-124.674 108.737-175.706 92.048-50.936-16.728-140.21-48.711-218.76-42.22-73.465 6.071-120.007-44.066-190.689-76.988-77.579-35.967-147.787 14.663-231.823 17.593-75.298 2.625-124.4 34.333-170.252 49.614-48.848 16.166-102.805 19.297-102.805 19.297" stroke="url(#p)"/><path d="M1612.48 722.595s-35.3 5.808-120.66-23.256c-13.71-4.667-26.34-13.054-38.39-24.206-70.88-65.582-147.48-180.006-276.86-198.703-135-19.51-210.876 64.952-266.79 135.25-51.102 64.76-122.973 107.585-173.813 91.85-50.739-15.777-139.277-46.982-217.575-40.944-72.841 5.617-119.588-43.518-189.812-76.023-77.169-35.543-147.256 13.542-230.386 15.321-77.972 1.668-127.143 34.858-173.634 50.453-49.406 16.455-105.06 19.202-105.06 19.202" stroke="url(#q)"/><path d="M1612.48 710.846s-35.84 5.547-120.78-24.384c-13.67-4.817-26.31-13.302-38.38-24.526-71.38-66.34-150.58-178.679-279.57-196.17-133.21-18.063-208.227 65.27-263.724 135.201-50.638 63.807-121.273 106.433-171.922 91.652-50.541-14.827-138.342-45.252-216.39-39.669-72.216 5.165-119.169-42.97-188.934-75.057-76.759-35.12-146.73 12.362-228.949 13.048-80.652.674-129.885 35.383-177.016 51.291-49.964 16.745-107.315 19.109-107.315 19.109" stroke="url(#r)"/><path d="M1612.48 699.098s-36.39 5.284-120.91-25.514c-13.63-4.965-26.26-13.548-38.36-24.845-71.87-67.099-153.67-177.362-282.27-193.636-131.42-16.631-205.452 65.694-260.668 135.15-50.048 62.953-119.573 105.282-170.031 91.454-50.344-13.876-137.406-43.519-215.205-38.393-71.59 4.716-118.75-42.422-188.056-74.092-76.349-34.696-146.209 11.128-227.513 10.777-83.336-.36-132.627 35.908-180.397 52.129-50.522 17.034-109.57 19.014-109.57 19.014" stroke="url(#s)"/><path d="M1612.48 687.349s-36.93 5.019-121.03-26.643c-13.59-5.115-26.23-13.795-38.35-25.164-72.37-67.858-156.76-176.054-284.98-191.103-129.62-15.213-202.666 66.12-257.603 135.1-49.457 62.1-117.872 104.131-168.139 91.256-50.146-12.926-136.47-41.784-214.019-37.118-70.964 4.27-118.332-41.873-187.179-73.125-75.939-34.273-145.691 9.843-226.076 8.504-86.024-1.434-135.37 36.433-183.779 52.967-51.08 17.324-111.825 18.92-111.825 18.92" stroke="url(#t)"/><path d="M1612.48 675.6s-37.47 4.752-121.16-27.771c-13.55-5.265-26.18-14.043-38.33-25.484-72.87-68.619-159.85-174.756-287.69-188.57-127.81-13.809-199.88 66.546-254.537 135.05-48.867 61.247-116.172 102.979-166.248 91.059-49.948-11.976-135.534-40.047-212.834-35.843-70.338 3.825-117.912-41.325-186.302-72.16-75.528-33.849-145.172 8.515-224.638 6.232-88.714-2.548-138.113 36.958-187.16 53.806-51.639 17.613-114.081 18.825-114.081 18.825" stroke="url(#u)"/><path d="M1612.48 663.851s-38.01 4.484-121.28-28.899c-13.51-5.416-26.15-14.292-38.32-25.804-73.37-69.379-162.93-173.469-290.4-186.036-126-12.422-197.093 66.971-251.471 135-48.276 60.394-114.472 101.827-164.357 90.86-49.75-11.025-134.597-38.307-211.648-34.567-69.711 3.383-117.494-40.777-185.425-71.194-75.117-33.426-144.654 7.145-223.201 3.959-91.402-3.707-140.855 37.483-190.543 54.644-52.196 17.903-116.335 18.732-116.335 18.732" stroke="url(#v)"/><path d="M1612.48 652.103s-38.55 4.212-121.41-30.029c-13.47-5.566-26.11-14.539-38.3-26.123-73.86-70.141-166-172.194-293.11-183.503-124.18-11.049-194.307 67.398-248.406 134.95-47.684 59.542-112.771 100.676-162.465 90.662-49.552-10.074-133.659-36.565-210.463-33.291-69.084 2.944-117.075-40.229-184.547-70.228-74.707-33.003-144.134 5.738-221.764 1.687-94.09-4.91-143.598 38.007-193.925 55.482-52.755 18.192-118.59 18.637-118.59 18.637" stroke="url(#w)"/><path d="M1612.48 640.354s-39.09 3.94-121.53-31.158c-13.43-5.716-26.07-14.787-38.29-26.442-74.36-70.904-169.07-170.93-295.82-180.97-122.36-9.692-191.519 67.825-245.34 134.9-47.092 58.69-111.071 99.525-160.574 90.464-49.355-9.123-132.721-34.82-209.278-32.016-68.456 2.508-116.655-39.68-183.669-69.262-74.297-32.579-143.611 4.297-220.327-.585-96.772-6.159-146.341 38.532-197.306 56.32-53.314 18.482-120.846 18.543-120.846 18.543" stroke="url(#x)"/><path d="M1612.48 628.605s-39.63 3.665-121.66-32.286c-13.39-5.868-26.03-15.035-38.27-26.762-74.85-71.667-172.13-169.68-298.53-178.437-120.53-8.351-188.732 68.252-242.274 134.851-46.5 57.838-109.371 98.372-158.683 90.266-49.157-8.173-131.783-33.074-208.092-30.741-67.828 2.073-116.237-39.132-182.792-68.296-73.887-32.156-143.084 2.825-218.89-2.858-99.45-7.455-149.084 39.057-200.688 57.159-53.872 18.771-123.101 18.448-123.101 18.448" stroke="url(#y)"/><path d="M1612.48 616.857s-40.17 3.388-121.78-33.416c-13.35-6.019-25.99-15.283-38.26-27.081-75.35-72.431-175.19-168.443-301.23-175.903-118.71-7.027-185.953 68.679-239.219 134.8-45.906 56.987-107.67 97.221-156.791 90.068-48.959-7.222-130.844-31.323-206.907-29.465-67.2 1.641-115.818-38.584-181.914-67.331-73.477-31.732-142.553 1.325-217.453-5.129-102.12-8.8-151.827 39.581-204.07 57.996-54.43 19.061-125.356 18.355-125.356 18.355" stroke="url(#z)"/><path d="M1612.48 605.108s-40.7 3.111-121.91-34.544c-13.31-6.171-25.95-15.532-38.24-27.401-75.84-73.195-178.25-167.22-303.94-173.37-116.88-5.719-183.165 69.107-236.153 134.75-45.313 56.136-105.97 96.07-154.9 89.87-48.761-6.271-129.905-29.571-205.721-28.19-66.572 1.213-115.399-38.035-181.037-66.364-73.067-31.309-142.016-.202-216.016-7.402C49.78 482.262-.007 532.563-52.889 551.292c-54.988 19.35-127.611 18.26-127.611 18.26" stroke="url(#A)"/><path d="M1612.48 593.359s-41.24 2.831-122.03-35.673c-13.27-6.323-25.91-15.78-38.23-27.72-76.34-73.96-181.31-166.012-306.65-170.837-115.04-4.428-180.376 69.535-233.087 134.7-44.72 55.286-104.27 94.919-153.009 89.672-48.563-5.32-128.966-27.815-204.536-26.914-65.943.786-114.98-37.487-180.159-65.399-72.657-30.885-141.472-1.752-214.58-9.674C52.764 469.872 2.888 522.146-50.634 541.187c-55.546 19.64-129.866 18.166-129.866 18.166" stroke="url(#B)"/><path d="M1612.48 581.611s-41.78 2.549-122.16-36.802c-13.23-6.475-25.86-16.029-38.21-28.04-76.83-74.726-184.36-164.821-309.36-168.304-113.2-3.154-177.586 69.964-230.022 134.651-44.125 54.435-102.569 93.766-151.117 89.474-48.365-4.37-128.027-26.057-203.351-25.639-65.313.363-114.561-36.939-179.281-64.433-72.247-30.462-140.921-3.324-213.143-11.947C55.759 457.429 5.782 511.728-48.379 531.083c-56.104 19.929-132.121 18.071-132.121 18.071" stroke="url(#C)"/><path d="M1612.48 569.862s-42.31 2.266-122.28-37.931c-13.19-6.627-25.83-16.277-38.2-28.359-77.32-75.492-187.41-163.646-312.07-165.77-111.36-1.898-174.796 70.392-226.956 134.6-43.53 53.585-100.869 92.615-149.226 89.276-48.168-3.419-127.088-24.295-202.165-24.363-64.685-.059-114.142-36.391-178.404-63.468-71.837-30.038-140.363-4.916-211.706-14.218C58.767 444.932 8.676 501.31-46.124 520.978c-56.662 20.219-134.376 17.978-134.376 17.978" stroke="url(#D)"/><path d="M1612.48 558.113s-42.84 1.981-122.41-39.059c-13.14-6.781-25.78-16.526-38.18-28.679-77.81-76.26-190.45-162.489-314.78-163.237-109.51-.659-172.005 70.821-223.89 134.55-42.935 52.736-99.169 91.464-147.335 89.078-47.97-2.468-126.148-22.531-200.98-23.088-64.056-.476-113.723-35.842-177.527-62.501-71.425-29.615-139.795-6.526-210.268-16.491C61.79 432.38 11.57 490.892-43.869 510.874-101.09 531.382-180.5 528.757-180.5 528.757" stroke="url(#E)"/><path d="M1612.48 546.364s-43.38 1.695-122.53-40.188c-13.11-6.933-25.75-16.774-38.17-28.998-78.3-77.027-193.5-161.351-317.48-160.704-107.68.562-169.224 71.251-220.835 134.501-42.339 51.886-97.468 90.311-145.443 88.88-47.772-1.518-125.209-20.764-199.794-21.813-63.427-.892-113.305-35.294-176.65-61.536-71.015-29.191-139.219-8.152-208.831-18.763-117.92-17.973-168.282 42.731-224.36 63.026-57.78 20.798-138.887 17.789-138.887 17.789" stroke="url(#F)"/><path d="M1612.48 534.616s-43.91 1.406-122.66-41.317c-13.06-7.087-25.7-17.024-38.15-29.318-78.79-77.796-196.54-160.232-320.19-158.17-105.84 1.764-166.432 71.681-217.769 134.45-41.743 51.038-95.768 89.16-143.552 88.682-47.574-.567-124.269-18.992-198.609-20.537-62.798-1.305-112.886-34.746-175.772-60.57-70.605-28.768-138.633-9.795-207.394-21.036-120.501-19.699-171.025 43.256-227.743 63.865-58.337 21.087-141.141 17.694-141.141 17.694" stroke="url(#G)"/><path d="M1612.48 522.867s-44.44 1.117-122.78-42.446c-13.02-7.24-25.67-17.272-38.14-29.637-79.28-78.565-199.59-159.135-322.9-155.637-103.99 2.949-163.639 72.112-214.703 134.4-41.146 50.19-94.068 88.009-141.66 88.484-47.377.384-123.331-17.218-197.425-19.261-62.169-1.715-112.466-34.198-174.894-59.604-70.195-28.345-138.038-11.451-205.957-23.308-123.064-21.485-173.768 43.78-231.125 64.702-58.895 21.377-143.396 17.601-143.396 17.601" stroke="url(#H)"/><path d="M1612.48 511.118s-44.97.826-122.91-43.574c-12.98-7.395-25.62-17.522-38.12-29.957-79.77-79.334-202.64-158.059-325.61-153.104-102.15 4.116-160.846 72.544-211.638 134.351-40.548 49.342-92.367 86.857-139.768 88.285-47.179 1.335-122.392-15.439-196.239-17.986-61.54-2.121-112.048-33.649-174.017-58.638-69.785-27.921-137.432-13.118-204.52-25.58-125.606-23.331-176.51 44.305-234.507 65.541-59.453 21.666-145.651 17.506-145.651 17.506" stroke="url(#I)"/><path d="M1612.48 499.37s-45.5.533-123.03-44.704c-12.94-7.548-25.59-17.77-38.11-30.276-80.26-80.104-205.68-157.007-328.32-150.571-100.3 5.264-158.052 72.976-208.572 134.301-39.95 48.495-90.666 85.705-137.877 88.088-46.982 2.285-121.453-13.659-195.054-16.711-60.912-2.526-111.629-33.101-173.139-57.672-69.375-27.498-136.814-14.798-203.084-27.853-128.125-25.24-179.252 44.831-237.888 66.379-60.011 21.956-147.906 17.412-147.906 17.412" stroke="url(#J)"/><path d="M1612.48 487.621s-46.02.24-123.16-45.832c-12.89-7.703-25.54-18.02-38.09-30.596-80.74-80.875-208.73-155.978-331.03-148.037-98.46 6.393-155.257 73.408-205.506 134.25-39.352 47.648-88.967 84.554-135.986 87.89-46.784 3.236-120.515-11.873-193.868-15.435-60.284-2.927-111.21-32.553-172.262-56.707-68.965-27.074-136.185-16.487-201.647-30.124-130.62-27.213-181.995 45.355-241.27 67.217-60.57 22.244-150.161 17.317-150.161 17.317" stroke="url(#K)"/><path d="M1612.48 475.872s-46.55-.055-123.28-46.961c-12.86-7.857-25.5-18.269-38.08-30.915-81.23-81.646-211.79-154.975-333.73-145.504-96.64 7.505-152.472 73.841-202.451 134.201-38.752 46.801-87.265 83.402-134.094 87.691-46.586 4.187-119.577-10.084-192.683-14.159-59.656-3.326-110.791-32.005-171.384-55.741-68.555-26.651-135.544-18.186-200.21-32.397-133.091-29.249-184.738 45.88-244.651 68.055-61.128 22.534-152.417 17.224-152.417 17.224" stroke="url(#L)"/><path d="M1612.48 464.124s-47.08-.352-123.41-48.09c-12.81-8.013-25.46-18.519-38.06-31.235-81.72-82.418-214.85-153.999-336.44-142.971-94.8 8.598-149.676 74.275-199.385 134.151-38.153 45.956-85.565 82.251-132.203 87.494-46.388 5.137-118.639-8.292-191.498-12.885-59.028-3.721-110.372-31.456-170.506-54.775-68.144-26.227-134.891-19.892-198.773-34.669-135.534-31.351-187.48 46.405-248.033 68.894-61.686 22.823-154.672 17.129-154.672 17.129" stroke="url(#M)"/><path d="M1612.48 452.375s-47.6-.649-123.53-49.219c-12.77-8.167-25.4-18.792-38.05-31.554-82.04-83.346-217.91-153.051-339.15-140.438-92.97 9.673-146.879 74.71-196.319 134.101-37.553 45.111-83.865 81.099-130.312 87.296-46.19 6.088-117.703-6.494-190.312-11.609-58.402-4.114-109.953-30.908-169.629-53.809-67.734-25.803-134.224-21.606-197.336-36.942-137.948-33.519-190.223 46.93-251.415 69.732-62.245 23.113-156.927 17.035-156.927 17.035" stroke="url(#N)"/><path d="M1612.48 440.626s-48.12-.948-123.66-50.347c-12.72-8.323-25.35-19.04-38.03-31.874-82.54-84.11-220.98-152.132-341.86-137.904-91.15 10.728-144.081 75.145-193.253 134.05-36.952 44.266-82.165 79.948-128.421 87.098-45.993 7.039-116.766-4.693-189.127-10.333-57.775-4.503-109.534-30.36-168.751-52.844-67.324-25.379-133.544-23.326-195.899-39.213-140.331-35.756-192.966 47.454-254.797 70.57-62.803 23.402-159.182 16.94-159.182 16.94" stroke="url(#O)"/><path d="M1612.48 428.877s-48.64-1.247-123.78-51.476c-12.68-8.478-25.32-19.288-38.02-32.193-83.03-84.874-224.06-151.244-344.57-135.371-89.33 11.767-141.282 75.581-190.188 134.001-36.35 43.421-80.464 78.796-126.529 86.899-45.795 7.99-115.831-2.887-187.941-9.057-57.15-4.89-109.116-29.812-167.875-51.878-66.913-24.956-132.849-25.051-194.461-41.486-142.681-38.06-195.709 47.979-258.18 71.408-63.36 23.692-161.436 16.847-161.436 16.847" stroke="url(#P)"/><path d="M1612.48 417.129s-49.16-1.549-123.91-52.605c-12.64-8.634-25.27-19.536-38-32.513-83.53-85.638-227.15-150.388-347.28-132.838-87.52 12.788-138.482 76.019-187.122 133.951-35.749 42.578-78.764 77.645-124.638 86.702-45.597 8.94-114.897-1.078-186.756-7.783-56.525-5.273-108.697-29.263-166.997-50.911-66.503-24.533-132.141-26.781-193.024-43.759C99.756 276.941 46.301 365.877-16.808 389.62-80.727 413.601-180.5 406.372-180.5 406.372" stroke="url(#Q)"/><path d="M1612.48 405.38s-49.68-1.851-124.03-53.734c-12.6-8.789-25.24-19.784-37.99-32.832-84.02-86.402-230.26-149.565-349.99-130.305-85.72 13.791-135.681 76.457-184.056 133.901-35.146 41.735-77.064 76.493-122.747 86.504-45.399 9.891-113.964.736-185.57-6.507-55.902-5.654-108.278-28.715-166.12-49.946-66.093-24.109-131.418-28.514-191.587-46.03-147.276-42.875-201.194 49.029-264.943 73.084C-79.03 403.786-180.5 396.173-180.5 396.173" stroke="url(#R)"/><path d="M1612.48 393.631s-50.2-2.153-124.16-54.862c-12.55-8.946-25.19-20.033-37.97-33.152-84.51-87.165-233.37-148.777-352.69-127.771-83.94 14.776-132.889 76.895-181.001 133.851-34.542 40.892-75.363 75.341-120.855 86.305-45.201 10.842-113.032 2.555-184.385-5.231-55.278-6.032-107.859-28.167-165.242-48.98-65.683-23.686-130.68-30.251-190.151-48.303-149.517-45.387-203.936 49.554-268.324 73.923-65.035 24.56-168.202 16.563-168.202 16.563" stroke="url(#S)"/><path d="M1612.48 381.883s-50.71-2.457-124.28-55.992c-12.51-9.102-25.16-20.28-37.96-33.471-85.01-87.929-236.5-148.025-355.4-125.238-82.16 15.745-130.086 77.335-177.935 133.801-33.938 40.05-73.663 74.19-118.964 86.107-45.003 11.793-112.101 4.379-183.2-3.955-54.656-6.407-107.44-27.619-164.364-48.015-65.273-23.262-129.926-31.988-188.714-50.575-151.718-47.968-206.679 50.079-271.706 74.761-65.593 24.85-170.457 16.47-170.457 16.47" stroke="url(#T)"/><path d="M1612.48 370.134s-51.23-2.762-124.41-57.12c-12.46-9.258-25.11-20.529-37.94-33.791-85.5-88.693-239.65-147.31-358.11-122.705-80.39 16.697-127.176 77.866-174.869 133.751-33.26 39.272-71.963 73.038-117.073 85.91-44.806 12.743-111.172 6.206-182.014-2.681-54.036-6.778-107.021-27.07-163.487-47.048-64.863-22.839-129.157-33.729-187.277-52.848-153.877-50.619-209.422 50.604-275.088 75.6-66.151 25.139-172.712 16.375-172.712 16.375" stroke="url(#U)"/><path d="M1612.48 358.385s-51.74-3.067-124.53-58.249c-12.42-9.415-25.08-20.776-37.93-34.11-85.99-89.457-242.82-146.633-360.82-120.171-78.63 17.633-124.384 78.296-171.804 133.701-32.664 38.422-70.262 71.886-115.181 85.711-44.608 13.694-110.245 8.04-180.829-1.405-53.416-7.147-106.602-26.522-162.609-46.083-64.452-22.415-128.372-35.468-185.84-55.119-155.992-53.341-212.165 51.128-278.47 76.437-66.71 25.429-174.967 16.281-174.967 16.281" stroke="url(#V)"/><path d="M1612.48 346.636s-52.15-3.498-124.66-59.377c-12.35-9.593-25.03-21.025-37.91-34.43-86.49-90.221-246.01-145.996-363.53-117.638-76.89 18.555-121.593 78.727-168.738 133.651-32.07 37.572-68.562 70.735-113.29 85.513-44.41 14.644-109.319 9.878-179.643-.129-52.798-7.513-106.184-25.974-161.732-45.117-64.042-21.992-127.57-37.209-184.403-57.392C120.512 195.585 63.667 303.37-3.278 328.993-70.546 354.711-180.5 345.18-180.5 345.18" stroke="url(#W)"/><path d="M1612.48 334.888s-52.68-3.775-124.78-60.507c-12.32-9.744-25-21.272-37.9-34.749-86.98-90.985-249.23-145.4-366.24-115.105-75.16 19.463-118.801 79.157-165.672 133.601-31.476 36.723-66.862 69.584-111.399 85.316-44.212 15.594-108.395 11.721-178.458 1.146-52.181-7.876-105.764-25.426-160.854-44.152-63.632-21.568-126.751-38.948-182.966-59.664-160.085-58.992-217.65 52.178-285.234 78.114-67.826 26.008-179.477 16.093-179.477 16.093" stroke="url(#X)"/><path d="M1612.48 323.139s-53.22-4.051-124.91-61.635c-12.27-9.896-24.95-21.521-37.88-35.069-87.47-91.749-252.47-144.847-368.94-112.572-73.47 20.357-116.019 79.588-162.617 133.551-30.88 35.874-65.161 68.432-109.507 85.118-44.014 16.545-107.473 13.569-177.273 2.421-51.565-8.235-105.345-24.877-159.976-43.185-63.222-21.145-125.915-40.687-181.529-61.937C127.789 167.91 69.455 282.534 1.233 308.784-67.152 335.081-180.5 324.782-180.5 324.782" stroke="url(#Y)"/><path d="M1612.48 311.39s-53.75-4.327-125.03-62.764c-12.23-10.047-24.92-21.768-37.87-35.388-87.97-92.513-255.75-144.335-371.65-110.038-71.78 21.238-113.227 80.018-159.551 133.501-30.286 35.023-63.461 67.28-107.615 84.919-43.818 17.496-106.571 15.518-176.088 3.697-50.964-8.523-104.927-24.329-159.1-42.219-62.811-20.722-125.061-42.424-180.091-64.209-163.983-64.918-223.136 53.227-291.997 79.79-68.943 26.587-183.988 15.904-183.988 15.904" stroke="url(#Z)"/><path d="M1612.48 299.642s-74.56-6.324-163.01-99.601c-88.46-93.276-259.05-143.867-374.36-107.505C959.8 128.898 925.05 263.28 812.901 310.708c-112.15 47.429-345.925-34.781-511.779-102.762-165.855-67.981-225.878 53.753-295.38 80.629-69.5 26.876-186.242 15.81-186.242 15.81" stroke="url(#aa)"/></g><defs><linearGradient id="b" x1="-180.5" y1="901.648" x2="-97.851" y2="363.555" gradientUnits="userSpaceOnUse"><stop stop-color="#34A05A"/><stop offset="1" stop-color="#71FF00"/></linearGradient><linearGradient id="c" x1="-180.5" y1="889.616" x2="-98.991" y2="355.159" gradientUnits="userSpaceOnUse"><stop stop-color="#34A05A"/><stop offset="1" stop-color="#71FF00"/></linearGradient><linearGradient id="d" x1="-180.5" y1="877.606" x2="-100.104" y2="346.726" gradientUnits="userSpaceOnUse"><stop stop-color="#34A05A"/><stop offset="1" stop-color="#71FF00"/></linearGradient><linearGradient id="e" x1="-180.5" y1="865.618" x2="-101.19" y2="338.254" gradientUnits="userSpaceOnUse"><stop stop-color="#34A05A"/><stop offset="1" stop-color="#71FF00"/></linearGradient><linearGradient id="f" x1="-180.5" y1="853.649" x2="-102.251" y2="329.746" gradientUnits="userSpaceOnUse"><stop stop-color="#34A05A"/><stop offset="1" stop-color="#71FF00"/></linearGradient><linearGradient id="g" x1="-180.5" y1="841.768" x2="-103.249" y2="321.14" gradientUnits="userSpaceOnUse"><stop stop-color="#34A05A"/><stop offset="1" stop-color="#71FF00"/></linearGradient><linearGradient id="h" x1="-180.5" y1="829.843" x2="-104.257" y2="312.55" gradientUnits="userSpaceOnUse"><stop stop-color="#34A05A"/><stop offset="1" stop-color="#71FF00"/></linearGradient><linearGradient id="i" x1="-180.5" y1="817.933" x2="-105.243" y2="303.923" gradientUnits="userSpaceOnUse"><stop stop-color="#34A05A"/><stop offset="1" stop-color="#71FF00"/></linearGradient><linearGradient id="j" x1="-180.5" y1="806.036" x2="-106.207" y2="295.26" gradientUnits="userSpaceOnUse"><stop stop-color="#34A05A"/><stop offset="1" stop-color="#71FF00"/></linearGradient><linearGradient id="k" x1="-180.5" y1="794.152" x2="-107.15" y2="286.561" gradientUnits="userSpaceOnUse"><stop stop-color="#34A05A"/><stop offset="1" stop-color="#71FF00"/></linearGradient><linearGradient id="l" x1="-180.5" y1="782.28" x2="-108.073" y2="277.825" gradientUnits="userSpaceOnUse"><stop stop-color="#34A05A"/><stop offset="1" stop-color="#71FF00"/></linearGradient><linearGradient id="m" x1="-180.5" y1="770.418" x2="-108.975" y2="269.051" gradientUnits="userSpaceOnUse"><stop stop-color="#34A05A"/><stop offset="1" stop-color="#71FF00"/></linearGradient><linearGradient id="n" x1="-180.5" y1="758.567" x2="-109.857" y2="260.239" gradientUnits="userSpaceOnUse"><stop stop-color="#34A05A"/><stop offset="1" stop-color="#71FF00"/></linearGradient><linearGradient id="o" x1="-180.5" y1="746.726" x2="-110.72" y2="251.387" gradientUnits="userSpaceOnUse"><stop stop-color="#34A05A"/><stop offset="1" stop-color="#71FF00"/></linearGradient><linearGradient id="p" x1="-180.5" y1="734.893" x2="-111.563" y2="242.497" gradientUnits="userSpaceOnUse"><stop stop-color="#34A05A"/><stop offset="1" stop-color="#71FF00"/></linearGradient><linearGradient id="q" x1="-180.5" y1="723.069" x2="-112.386" y2="233.565" gradientUnits="userSpaceOnUse"><stop stop-color="#34A05A"/><stop offset="1" stop-color="#71FF00"/></linearGradient><linearGradient id="r" x1="-180.5" y1="711.252" x2="-113.19" y2="224.588" gradientUnits="userSpaceOnUse"><stop stop-color="#34A05A"/><stop offset="1" stop-color="#71FF00"/></linearGradient><linearGradient id="s" x1="-180.5" y1="699.442" x2="-113.975" y2="215.573" gradientUnits="userSpaceOnUse"><stop stop-color="#34A05A"/><stop offset="1" stop-color="#71FF00"/></linearGradient><linearGradient id="t" x1="-180.5" y1="687.64" x2="-114.742" y2="206.516" gradientUnits="userSpaceOnUse"><stop stop-color="#34A05A"/><stop offset="1" stop-color="#71FF00"/></linearGradient><linearGradient id="u" x1="-180.5" y1="675.843" x2="-115.491" y2="197.414" gradientUnits="userSpaceOnUse"><stop stop-color="#34A05A"/><stop offset="1" stop-color="#71FF00"/></linearGradient><linearGradient id="v" x1="-180.5" y1="664.052" x2="-116.22" y2="188.266" gradientUnits="userSpaceOnUse"><stop stop-color="#34A05A"/><stop offset="1" stop-color="#71FF00"/></linearGradient><linearGradient id="w" x1="-180.5" y1="652.267" x2="-116.932" y2="179.072" gradientUnits="userSpaceOnUse"><stop stop-color="#34A05A"/><stop offset="1" stop-color="#71FF00"/></linearGradient><linearGradient id="x" x1="-180.5" y1="640.486" x2="-117.624" y2="169.831" gradientUnits="userSpaceOnUse"><stop stop-color="#34A05A"/><stop offset="1" stop-color="#71FF00"/></linearGradient><linearGradient id="y" x1="-180.5" y1="628.71" x2="-118.298" y2="160.54" gradientUnits="userSpaceOnUse"><stop stop-color="#34A05A"/><stop offset="1" stop-color="#71FF00"/></linearGradient><linearGradient id="z" x1="-180.5" y1="616.939" x2="-118.954" y2="151.198" gradientUnits="userSpaceOnUse"><stop stop-color="#34A05A"/><stop offset="1" stop-color="#71FF00"/></linearGradient><linearGradient id="A" x1="-180.5" y1="605.17" x2="-119.591" y2="141.804" gradientUnits="userSpaceOnUse"><stop stop-color="#34A05A"/><stop offset="1" stop-color="#71FF00"/></linearGradient><linearGradient id="B" x1="-180.5" y1="593.406" x2="-120.209" y2="132.358" gradientUnits="userSpaceOnUse"><stop stop-color="#34A05A"/><stop offset="1" stop-color="#71FF00"/></linearGradient><linearGradient id="C" x1="-180.5" y1="581.644" x2="-120.809" y2="122.856" gradientUnits="userSpaceOnUse"><stop stop-color="#34A05A"/><stop offset="1" stop-color="#71FF00"/></linearGradient><linearGradient id="D" x1="-180.5" y1="569.885" x2="-121.39" y2="113.298" gradientUnits="userSpaceOnUse"><stop stop-color="#34A05A"/><stop offset="1" stop-color="#71FF00"/></linearGradient><linearGradient id="E" x1="-180.5" y1="558.128" x2="-121.952" y2="103.681" gradientUnits="userSpaceOnUse"><stop stop-color="#34A05A"/><stop offset="1" stop-color="#71FF00"/></linearGradient><linearGradient id="F" x1="-180.5" y1="546.374" x2="-122.495" y2="94.005" gradientUnits="userSpaceOnUse"><stop stop-color="#34A05A"/><stop offset="1" stop-color="#71FF00"/></linearGradient><linearGradient id="G" x1="-180.5" y1="534.621" x2="-123.018" y2="84.261" gradientUnits="userSpaceOnUse"><stop stop-color="#34A05A"/><stop offset="1" stop-color="#71FF00"/></linearGradient><linearGradient id="H" x1="-180.5" y1="522.87" x2="-123.519" y2="74.445" gradientUnits="userSpaceOnUse"><stop stop-color="#34A05A"/><stop offset="1" stop-color="#71FF00"/></linearGradient><linearGradient id="I" x1="-180.5" y1="511.119" x2="-123.998" y2="64.551" gradientUnits="userSpaceOnUse"><stop stop-color="#34A05A"/><stop offset="1" stop-color="#71FF00"/></linearGradient><linearGradient id="J" x1="-180.5" y1="499.37" x2="-124.453" y2="54.576" gradientUnits="userSpaceOnUse"><stop stop-color="#34A05A"/><stop offset="1" stop-color="#71FF00"/></linearGradient><linearGradient id="K" x1="-180.5" y1="487.621" x2="-124.884" y2="44.514" gradientUnits="userSpaceOnUse"><stop stop-color="#34A05A"/><stop offset="1" stop-color="#71FF00"/></linearGradient><linearGradient id="L" x1="-180.5" y1="475.872" x2="-125.29" y2="34.361" gradientUnits="userSpaceOnUse"><stop stop-color="#34A05A"/><stop offset="1" stop-color="#71FF00"/></linearGradient><linearGradient id="M" x1="-180.5" y1="464.625" x2="-125.428" y2="23.656" gradientUnits="userSpaceOnUse"><stop stop-color="#34A05A"/><stop offset="1" stop-color="#71FF00"/></linearGradient><linearGradient id="N" x1="-180.5" y1="454.188" x2="-125.145" y2="12.107" gradientUnits="userSpaceOnUse"><stop stop-color="#34A05A"/><stop offset="1" stop-color="#71FF00"/></linearGradient><linearGradient id="O" x1="-180.5" y1="443.834" x2="-124.796" y2=".382" gradientUnits="userSpaceOnUse"><stop stop-color="#34A05A"/><stop offset="1" stop-color="#71FF00"/></linearGradient><linearGradient id="P" x1="-180.5" y1="433.56" x2="-124.378" y2="-11.527" gradientUnits="userSpaceOnUse"><stop stop-color="#34A05A"/><stop offset="1" stop-color="#71FF00"/></linearGradient><linearGradient id="Q" x1="-180.5" y1="423.366" x2="-123.89" y2="-23.622" gradientUnits="userSpaceOnUse"><stop stop-color="#34A05A"/><stop offset="1" stop-color="#71FF00"/></linearGradient><linearGradient id="R" x1="-180.5" y1="413.246" x2="-123.331" y2="-35.904" gradientUnits="userSpaceOnUse"><stop stop-color="#34A05A"/><stop offset="1" stop-color="#71FF00"/></linearGradient><linearGradient id="S" x1="-180.5" y1="403.199" x2="-122.703" y2="-48.373" gradientUnits="userSpaceOnUse"><stop stop-color="#34A05A"/><stop offset="1" stop-color="#71FF00"/></linearGradient><linearGradient id="T" x1="-180.5" y1="393.218" x2="-122.005" y2="-61.026" gradientUnits="userSpaceOnUse"><stop stop-color="#34A05A"/><stop offset="1" stop-color="#71FF00"/></linearGradient><linearGradient id="U" x1="-180.5" y1="383.3" x2="-121.238" y2="-73.863" gradientUnits="userSpaceOnUse"><stop stop-color="#34A05A"/><stop offset="1" stop-color="#71FF00"/></linearGradient><linearGradient id="V" x1="-180.5" y1="373.437" x2="-120.404" y2="-86.879" gradientUnits="userSpaceOnUse"><stop stop-color="#34A05A"/><stop offset="1" stop-color="#71FF00"/></linearGradient><linearGradient id="W" x1="-180.5" y1="363.624" x2="-119.503" y2="-100.072" gradientUnits="userSpaceOnUse"><stop stop-color="#34A05A"/><stop offset="1" stop-color="#71FF00"/></linearGradient><linearGradient id="X" x1="-180.5" y1="353.857" x2="-118.536" y2="-113.435" gradientUnits="userSpaceOnUse"><stop stop-color="#34A05A"/><stop offset="1" stop-color="#71FF00"/></linearGradient><linearGradient id="Y" x1="-180.5" y1="344.129" x2="-117.505" y2="-126.966" gradientUnits="userSpaceOnUse"><stop stop-color="#34A05A"/><stop offset="1" stop-color="#71FF00"/></linearGradient><linearGradient id="Z" x1="-180.5" y1="334.472" x2="-116.391" y2="-140.692" gradientUnits="userSpaceOnUse"><stop stop-color="#34A05A"/><stop offset="1" stop-color="#71FF00"/></linearGradient><linearGradient id="aa" x1="-180.5" y1="324.773" x2="-115.254" y2="-154.51" gradientUnits="userSpaceOnUse"><stop stop-color="#34A05A"/><stop offset="1" stop-color="#71FF00"/></linearGradient><clipPath id="a"><path fill="#fff" transform="translate(-166)" d="M0 0h1762v992H0z"/></clipPath></defs></svg>