<svg version="1.1" id="Ebene_1" xmlns="http://www.w3.org/2000/svg" xmlns:xlink="http://www.w3.org/1999/xlink" x="0px"
     y="0px" viewBox="0 0 500 500" enable-background="new 0 0 500 500" xml:space="preserve">
<g>
	<path fill="#fff"
          d="M331.7,428.2v43.7c0,15.6,12.5,28.1,27.3,28.1c14.8,0,27.3-12.5,27.3-28.1v-43.7c21.1-10.2,35.1-32.8,35.1-57V129.1   c0-25.8-14.8-46.9-35.1-57V28.3c0-15.6-12.5-28.1-27.3-28.1c-14.8,0-27.3,12.5-27.3,28.1V72c-21.1,10.2-35.1,32.8-35.1,57v242.1   C296.5,395.4,310.6,418,331.7,428.2z M312.1,129.1c0-19.5,12.5-38.3,30.5-44.5c3.1-0.8,4.7-3.9,4.7-7V28.3c0-7,5.5-12.5,11.7-12.5   s11.7,5.5,11.7,12.5v49.2c0,3.1,2.3,6.2,4.7,7c18,7,30.5,24.2,30.5,44.5v242.1c0,19.5-12.5,37.5-30.5,44.5c-3.1,0.8-4.7,3.9-4.7,7   v49.2c0,7-5.5,12.5-11.7,12.5s-11.7-5.5-11.7-12.5v-49.2c0-3.1-2.3-6.2-4.7-7c-18-7-30.5-25-30.5-44.5V129.1z"></path>
    <path fill="#fff"
          d="M148.9,237.6V293h-14.8c-3.9,0-7.8,3.1-7.8,7.8l-7,160.1c-2.3,51.5,77.3,51.5,75,0l-7-160.1c0-3.9-3.9-7.8-7.8-7.8h-14.8   v-55.4c16.4-3.1,31.2-14.1,36.7-30.5c25-67.9,49.2-156.2,23.4-186.6C202-6.8,113-6.8,89.6,20.5C63.8,51,88,138.4,113,207.1   C117.7,223.5,131.7,234.5,148.9,237.6z M178.6,461.7c0.8,29.7-45.3,29.7-43.7,0l6.2-153.1h30.5L178.6,461.7z M186.4,201.7   c-3.9,10.2-11.7,17.2-21.9,19.5V15.8c22.6,0.8,41.4,7,47.6,14.8C227.8,49.4,218.4,113.4,186.4,201.7z M100.5,30.7   c7-7.8,25.8-13.3,47.6-14.8v205.4c-10.2-2.3-18.7-10.2-21.9-19.5C94.2,113.4,84.9,49.4,100.5,30.7z"></path>
    <path fill="#fff"
          d="M151.3,448.5c-3.1,3.1-3.1,7.8,0,10.9c3.1,3.1,7.8,3.1,10.9,0c3.1-3.1,3.1-8.6,0-10.9C159.1,445.3,153.6,445.3,151.3,448.5   z"></path>
</g>
</svg>