<!-- Generator: Adobe Illustrator 25.4.1, SVG Export Plug-In . SVG Version: 6.00 Build 0)  -->
<svg version="1.1" id="Ebene_1" xmlns="http://www.w3.org/2000/svg" xmlns:xlink="http://www.w3.org/1999/xlink" x="0px"
     y="0px" viewBox="0 0 85 85" style="enable-background:new 0 0 85 85;" xml:space="preserve">
<g>
	<path fill="#e7d4b9" d="M14.1,25.6h28.6c0.5,0,1-0.4,1-1c0-0.5-0.4-1-1-1H14.1c-0.5,0-1,0.4-1,1S13.6,25.6,14.1,25.6z"></path>
    <path fill="#e7d4b9" d="M14.1,45.8h28.6c0.5,0,1-0.4,1-1c0-0.5-0.4-1-1-1H14.1c-0.5,0-1,0.4-1,1C13.1,45.4,13.6,45.8,14.1,45.8z"></path>
    <path fill="#e7d4b9" d="M14.1,35.7h33.3c0.5,0,1-0.4,1-1c0-0.5-0.4-1-1-1H14.1c-0.5,0-1,0.4-1,1S13.6,35.7,14.1,35.7z"></path>
    <path fill="#e7d4b9" d="M75.4,28.5c-0.1-0.3-0.3-0.6-0.6-0.8l-2.7-1.6l0.5-0.9c0.5-0.8,0.6-1.7,0.3-2.5c-0.2-0.9-0.8-1.7-1.6-2l-2.5-1.5
		c-1.6-0.9-3.7-0.3-4.7,1.3l-2.1,3.8v-6.2c0-0.4-0.1-0.7-0.4-0.9L50,5.5c-0.2-0.2-0.6-0.4-0.9-0.4H4.6c-0.7,0-1.3,0.6-1.3,1.3v73.1
		c0,0.7,0.6,1.3,1.3,1.3h56.1c0.7,0,1.3-0.6,1.3-1.3v-36l8.8-15.2l1.7,1l-7.6,13c-0.4,0.6-0.1,1.4,0.5,1.8c0.2,0.1,0.4,0.2,0.7,0.2
		c0.5,0,0.9-0.2,1.2-0.7l8.2-14.2C75.4,29.2,75.4,28.8,75.4,28.5z M66.3,21.8c0.2-0.4,0.7-0.5,1.1-0.3l2.5,1.5
		c0.2,0.1,0.3,0.3,0.4,0.5c0.1,0.2,0,0.4-0.1,0.6l-6.3,11L60,32.8L66.3,21.8z M47.5,63.3l-3.9-2.2L59,34.4l3.9,2.2L47.5,63.3z
		 M42.1,68.8c-0.2-0.1-0.4-0.2-0.6-0.3l1.2-5l3.1,1.8L42.1,68.8z M58.1,17.3h-8.5V8.9L58.1,17.3z M59.3,78.2H5.8V7.7h41.3v10.9
		c0,0.7,0.6,1.3,1.3,1.3h10.9v8.8L40.7,60.9c0,0.1,0,0.1-0.1,0.2c0,0.1-0.1,0.1-0.1,0.2L39,68.2c-0.2,0.6-0.1,1.3,0.5,1.9l-1.2,1.9
		v0.1c-0.7,0-1.4-0.1-1.9-0.2c0,0-0.3-0.1-0.6-0.2c0.3-0.3,0.5-0.7,0.7-1.1c0.4-1.1,0-2.6-0.9-3.6c-0.7-0.8-1.7-1.1-2.6-0.9
		c-1,0.3-1.8,1.4-2,2.2c-0.3,1.1,0,2,0.7,2.8c-1.2,0-2.3-0.1-3.1-0.4h-0.1c0.6-0.5,1-1.2,1.4-1.8c0.4-0.9,0.4-1.8-0.1-2.7
		c-0.5-0.8-1.4-1.3-2.2-1.3c-0.9-0.1-1.8,0.4-2.2,1.1c-0.8,1.1-0.8,2.7-0.3,3.8c0.1,0.3,0.3,0.5,0.4,0.8c-0.2,0.1-0.3,0.1-0.5,0.2
		c-1.2,0.4-2.3,0.4-3.2-0.1c-1-0.5-2-1.7-2.5-2.6c0-0.1,0-0.1-0.1-0.2c2.4-0.8,5.2-2.5,6.5-4.8c1-1.6,1.2-3.2,0.8-4.8
		c-0.3-1-1-1.7-1.8-2.1c-1.1-0.5-2.2-0.5-3.2-0.1c-3.3,1.5-4.7,5.8-4.6,9.2c0,0.3,0,0.7,0.1,1.1c-3.3,0.7-4.1,0.3-4.2,0.2
		c-0.2-0.5-0.8-0.8-1.3-0.6c-0.5,0.2-0.8,0.8-0.6,1.3c0.8,2,4.4,1.5,6.4,1c0.1,0.2,0.1,0.4,0.2,0.6c0.7,1.4,2,2.8,3.3,3.5
		c1.4,0.7,3,0.8,4.7,0.3c0.5-0.2,0.9-0.4,1.4-0.6c0.4,0.3,0.8,0.5,1.2,0.7c1.3,0.4,3.8,0.7,5.8,0.2c0.7,0.4,1.6,0.7,2.3,0.8
		c0.8,0.2,1.7,0.3,2.6,0.3c0.2,0,0.4-0.1,0.5-0.2c0.1,0,0.2,0.1,0.3,0.1c0.5,0,0.9-0.2,1.1-0.7l1.2-1.9c0.2,0,0.4,0.1,0.6,0.1
		c0.6,0,1.1-0.3,1.4-0.6l5.2-4.9c0.1-0.1,0.1-0.2,0.2-0.2c0,0,0.1,0,0.1-0.1l10.2-17.7L59.3,78.2L59.3,78.2z M34.7,70
		c-0.1,0.4-0.4,0.6-0.8,0.8c-0.7-0.5-1.3-1.2-1.1-1.9c0.1-0.3,0.5-0.7,0.7-0.8h0.1c0.2,0,0.4,0.1,0.6,0.3
		C34.7,68.9,34.8,69.6,34.7,70z M28,68.4c-0.2,0.5-0.6,1-1.1,1.4c-0.1-0.2-0.2-0.3-0.3-0.5c-0.3-0.6-0.2-1.5,0.1-1.9
		c0.1-0.2,0.3-0.3,0.5-0.3l0,0c0.4,0,0.6,0.3,0.7,0.4C28.1,67.7,28.2,68.1,28,68.4z M18.6,66.1c0-0.3,0-0.5-0.1-0.7
		c-0.1-2.9,1.1-6.4,3.4-7.5c0.2-0.1,0.5-0.1,0.8-0.1s0.6,0.1,0.9,0.2c0.3,0.1,0.7,0.4,0.9,1c0.3,1.1,0.1,2.1-0.6,3.2
		C22.7,64,20.5,65.4,18.6,66.1z"></path>
</g>
</svg>