<svg version="1.1" id="Ebene_1" xmlns="http://www.w3.org/2000/svg" x="0" y="0" viewBox="0 0 1920 1080" xml:space="preserve"><style>.st1{stroke-miterlimit:10}.st1,.st2,.st3{fill:none;stroke:#6b5840;stroke-width:.5}.st2{stroke-miterlimit:9.9999}.st3{stroke-miterlimit:9.9998}</style><path d="M4275.5 540c0 1536-1245.2 2781.3-2781.3 2781.3S-1287.2 2076-1287.2 540-41.9-2241.3 1494.1-2241.3C3030.2-2241.3 4275.5-996 4275.5 540" fill="#a1845c"/><circle class="st1" cx="1494.1" cy="540" r="2781.3"/><circle class="st1" cx="1494.1" cy="540" r="2761.8"/><circle class="st2" cx="1494.1" cy="540" r="2742.2"/><circle class="st1" cx="1494.1" cy="540" r="2722.6"/><circle class="st2" cx="1494.1" cy="540" r="2703"/><circle class="st1" cx="1494.1" cy="540" r="2683.4"/><circle class="st1" cx="1494.1" cy="540" r="2663.8"/><circle class="st2" cx="1494.1" cy="540" r="2644.2"/><circle class="st1" cx="1494.1" cy="540" r="2624.7"/><circle class="st1" cx="1494.1" cy="540" r="2605.1"/><circle class="st1" cx="1494.1" cy="540" r="2585.5"/><circle class="st2" cx="1494.1" cy="540" r="2565.9"/><circle class="st1" cx="1494.1" cy="540" r="2546.3"/><circle class="st1" cx="1494.1" cy="540" r="2526.7"/><circle class="st1" cx="1494.1" cy="540" r="2507"/><circle class="st1" cx="1494.1" cy="540" r="2487.6"/><circle class="st2" cx="1494.1" cy="540" r="2468"/><circle class="st1" cx="1494.1" cy="540" r="2448.4"/><circle class="st2" cx="1494.1" cy="540" r="2428.8"/><circle class="st1" cx="1494.1" cy="540" r="2409.1"/><circle class="st1" cx="1494.1" cy="540" r="2389.5"/><circle class="st1" cx="1494.1" cy="540" r="2370.1"/><circle class="st1" cx="1494.1" cy="540" r="2350.5"/><circle class="st2" cx="1494.1" cy="540" r="2330.9"/><circle class="st2" cx="1494.1" cy="540" r="2311.2"/><circle class="st1" cx="1494.1" cy="540" r="2291.6"/><circle class="st1" cx="1494.1" cy="540" r="2272"/><circle class="st2" cx="1494.1" cy="540" r="2252.4"/><circle class="st1" cx="1494.1" cy="540" r="2233"/><circle class="st2" cx="1494.1" cy="540" r="2213.4"/><circle class="st1" cx="1494.1" cy="540" r="2193.7"/><circle class="st1" cx="1494.1" cy="540" r="2174.1"/><circle class="st1" cx="1494.1" cy="540" r="2154.5"/><circle class="st2" cx="1494.1" cy="540" r="2134.9"/><circle class="st1" cx="1494.1" cy="540" r="2115.3"/><circle class="st1" cx="1494.1" cy="540" r="2095.8"/><circle class="st2" cx="1494.1" cy="540" r="2076.2"/><circle class="st1" cx="1494.1" cy="540" r="2056.6"/><circle class="st2" cx="1494.1" cy="540" r="2037"/><circle class="st1" cx="1494.1" cy="540" r="2017.4"/><circle class="st1" cx="1494.1" cy="540" r="1997.8"/><circle class="st2" cx="1494.1" cy="540" r="1978.2"/><circle class="st1" cx="1494.1" cy="540" r="1958.7"/><circle class="st1" cx="1494.1" cy="540" r="1939.1"/><circle class="st1" cx="1494.1" cy="540" r="1919.5"/><circle class="st1" cx="1494.1" cy="540" r="1899.9"/><circle class="st1" cx="1494.1" cy="540" r="1880.3"/><circle class="st1" cx="1494.1" cy="540" r="1860.7"/><circle class="st1" cx="1494.1" cy="540" r="1841.1"/><circle class="st1" cx="1494.1" cy="540" r="1821.6"/><circle class="st2" cx="1494.1" cy="540" r="1802"/><circle class="st1" cx="1494.1" cy="540" r="1782.4"/><circle class="st2" cx="1494.1" cy="540" r="1762.8"/><circle class="st1" cx="1494.1" cy="540" r="1743.2"/><circle class="st1" cx="1494.1" cy="540" r="1723.6"/><circle class="st2" cx="1494.1" cy="540" r="1704"/><circle class="st1" cx="1494.1" cy="540" r="1684.5"/><circle class="st2" cx="1494.1" cy="540" r="1664.9"/><circle class="st2" cx="1494.1" cy="540" r="1645.3"/><circle class="st1" cx="1494.1" cy="540" r="1625.7"/><circle class="st1" cx="1494.1" cy="540" r="1606.1"/><circle class="st2" cx="1494.1" cy="540" r="1586.5"/><circle class="st1" cx="1494.1" cy="540" r="1566.9"/><circle class="st2" cx="1494.1" cy="540" r="1547.4"/><circle class="st1" cx="1494.1" cy="540" r="1527.8"/><circle class="st1" cx="1494.1" cy="540" r="1508.2"/><circle class="st2" cx="1494.1" cy="540" r="1488.6"/><circle class="st2" cx="1494.1" cy="540" r="1469"/><circle class="st1" cx="1494.1" cy="540" r="1449.4"/><circle class="st1" cx="1494.1" cy="540" r="1429.9"/><circle class="st2" cx="1494.1" cy="540" r="1410.3"/><circle class="st1" cx="1494.1" cy="540" r="1390.7"/><circle class="st2" cx="1494.1" cy="540" r="1371.1"/><circle class="st1" cx="1494.1" cy="540" r="1351.5"/><circle class="st1" cx="1494.1" cy="540" r="1331.9"/><circle class="st2" cx="1494.1" cy="540" r="1312.3"/><circle class="st1" cx="1494.1" cy="540" r="1292.8"/><circle class="st2" cx="1494.1" cy="540" r="1273.2"/><circle class="st1" cx="1494.1" cy="540" r="1253.6"/><circle class="st1" cx="1494.1" cy="540" r="1234"/><circle class="st1" cx="1494.1" cy="540" r="1214.4"/><circle class="st2" cx="1494.1" cy="540" r="1194.8"/><circle class="st1" cx="1494.1" cy="540" r="1175.2"/><circle class="st1" cx="1494.1" cy="540" r="1155.7"/><circle class="st3" cx="1494" cy="540" r="1136.1"/><circle class="st1" cx="1494.1" cy="540" r="1116.5"/><circle class="st3" cx="1494" cy="540" r="1096.9"/><circle class="st1" cx="1494.1" cy="540" r="1077.3"/><circle class="st1" cx="1494.1" cy="540" r="1057.7"/><circle class="st3" cx="1494" cy="540" r="1038"/><circle class="st1" cx="1494.1" cy="540" r="1018.6"/><circle class="st3" cx="1494" cy="540" r="999"/><circle class="st3" cx="1494" cy="540" r="979.4"/><circle class="st1" cx="1494.1" cy="540" r="959.8"/><circle class="st1" cx="1494.1" cy="540" r="940.2"/><circle class="st3" cx="1494" cy="540" r="920.5"/><circle class="st1" cx="1494.1" cy="540" r="900.9"/><circle class="st2" cx="1494.1" cy="540" r="881.5"/><circle class="st1" cx="1494.1" cy="540" r="861.9"/><circle class="st1" cx="1494.1" cy="540" r="842.3"/><circle class="st2" cx="1494.1" cy="540" r="822.7"/><circle class="st1" cx="1494.1" cy="540" r="803"/><circle class="st1" cx="1494.1" cy="540" r="783.4"/><circle class="st1" cx="1494.1" cy="540" r="763.8"/><circle class="st1" cx="1494.1" cy="540" r="744.4"/><circle class="st1" cx="1494.1" cy="540" r="724.8"/><circle transform="rotate(-45.001 1493.986 540.06)" class="st3" cx="1494" cy="540" r="705.1"/><circle class="st1" cx="1494.1" cy="540" r="685.5"/><circle class="st1" cx="1494.1" cy="540" r="665.9"/><circle class="st2" cx="1494.1" cy="540" r="646.3"/><circle class="st1" cx="1494.1" cy="540" r="626.7"/><circle class="st2" cx="1494.1" cy="540" r="607.3"/><circle class="st1" cx="1494.1" cy="540" r="587.6"/><circle class="st1" cx="1494.1" cy="540" r="568"/><circle class="st2" cx="1494.1" cy="540" r="548.4"/><circle class="st2" cx="1494.1" cy="540" r="528.8"/><circle class="st1" cx="1494.1" cy="540" r="509.2"/><circle class="st1" cx="1494.1" cy="540" r="489.7"/><circle class="st3" cx="1494" cy="540" r="470.1"/><circle class="st1" cx="1494.1" cy="540" r="450.5"/><circle class="st3" cx="1494" cy="540" r="430.9"/><circle class="st1" cx="1494.1" cy="540" r="411.3"/><circle class="st1" cx="1494.1" cy="540" r="391.7"/><circle class="st3" cx="1494" cy="540" r="372.1"/><circle class="st1" cx="1494.1" cy="540" r="352.6"/><circle class="st3" cx="1494" cy="540" r="333"/><circle class="st1" cx="1494.1" cy="540" r="313.4"/><circle class="st1" cx="1494.1" cy="540" r="293.8"/><circle class="st1" cx="1494.1" cy="540" r="274.2"/><circle class="st3" cx="1494" cy="540" r="254.6"/><circle class="st1" cx="1494.1" cy="540" r="235"/><circle class="st1" cx="1494.2" cy="540" r="215.5"/><circle class="st1" cx="1494.2" cy="540" r="195.9"/><circle class="st1" cx="1494.1" cy="540" r="176.3"/><path class="st1" d="M1650.8 540c0 86.5-70.2 156.7-156.7 156.7s-156.7-70.2-156.7-156.7 70.2-156.7 156.7-156.7c86.6 0 156.7 70.2 156.7 156.7z"/><circle class="st1" cx="1494.1" cy="540" r="137.1"/><path class="st1" d="M1611.7 540c0 64.9-52.6 117.5-117.5 117.5s-117.5-52.6-117.5-117.5 52.6-117.5 117.5-117.5 117.5 52.6 117.5 117.5z"/><path class="st1" d="M1592.1 540c0 54.1-43.9 97.9-97.9 97.9-54.1 0-97.9-43.9-97.9-97.9 0-54.1 43.9-97.9 97.9-97.9s97.9 43.8 97.9 97.9z"/><circle class="st1" cx="1494.1" cy="540" r="78.4"/><path d="M1527.8 562.1c-1-17-22.4-24.7-24.4-25.5-.1 0-.1-.1 0-.2l22.1-22.2v-2.4c0-.4-.3-.7-.7-.7H1484v-17.3l-15 3.1v2.3h.8s3.7 0 3.7 3.7v8.2h-11.6c-.2 0-.4.2-.4.4v5.2h12.1V545c0 8.9 5.7 15.1 15.8 14.3 2.1-.2 4.1-1 5.8-2.1.8-.5 1.2-1.3 1.2-2.2v-2.8c-3.3 2.2-6 2-6 2-6.4 0-6.2-8.1-6.2-8.1v-29.5h29.3l-21.1 21.2c0 2.8-.1 5-.1 5 0 .1 0 .1.1.1 19.3 3.3 24.5 15.8 24.5 19.4 0 0 2.1 17.7-15.6 18.9 0 0-11.6.5-13.6-4.1-.1-.2 0-.3.2-.4 1.9-.9 3.2-2.6 3.2-4.9 0-3.4-2.1-6.2-6.5-6.2-3.6 0-6.5 2.8-6.5 6.2 0 0-1.7 14.9 23.2 14.5 28.2-.5 26.5-24.2 26.5-24.2z" fill="#6b5840"/></svg>