<svg xmlns="http://www.w3.org/2000/svg" version="1.1" xml:space="preserve" width="1920" height="1080"><rect id="backgroundrect" width="100%" height="100%" x="0" y="0" fill="none" stroke="none"/><style>.st1{stroke-miterlimit:10}.st1,.st2,.st3{fill:none;stroke:#6b5840;stroke-width:.5}.st2{stroke-miterlimit:9.9999}.st3{stroke-miterlimit:9.9998}</style><g class="currentLayer" style=""><title>Layer 1</title><path d="M4275.5 540c0 1536-1245.2 2781.3-2781.3 2781.3S-1287.2 2076-1287.2 540-41.9-2241.3 1494.1-2241.3C3030.2-2241.3 4275.5-996 4275.5 540" fill="#2afe30" id="svg_1"/><circle class="st1" cx="1494.0999755859375" cy="540" r="2781.300048828125" id="svg_2"/><circle class="st1" cx="1494.0999755859375" cy="540" r="2761.800048828125" id="svg_3"/><circle class="st2" cx="1494.0999755859375" cy="540" r="2742.199951171875" id="svg_4"/><circle class="st1" cx="1494.0999755859375" cy="540" r="2722.60009765625" id="svg_5"/><circle class="st2" cx="1494.0999755859375" cy="540" r="2703" id="svg_6"/><circle class="st1" cx="1494.0999755859375" cy="540" r="2683.39990234375" id="svg_7"/><circle class="st1" cx="1494.0999755859375" cy="540" r="2663.800048828125" id="svg_8"/><circle class="st2" cx="1494.0999755859375" cy="540" r="2644.199951171875" id="svg_9"/><circle class="st1" cx="1494.0999755859375" cy="540" r="2624.699951171875" id="svg_10"/><circle class="st1" cx="1494.0999755859375" cy="540" r="2605.10009765625" id="svg_11"/><circle class="st1" cx="1494.0999755859375" cy="540" r="2585.5" id="svg_12"/><circle class="st2" cx="1494.0999755859375" cy="540" r="2565.89990234375" id="svg_13"/><circle class="st1" cx="1494.0999755859375" cy="540" r="2546.300048828125" id="svg_14"/><circle class="st1" cx="1494.0999755859375" cy="540" r="2526.699951171875" id="svg_15"/><circle class="st1" cx="1494.0999755859375" cy="540" r="2507" id="svg_16"/><circle class="st1" cx="1494.0999755859375" cy="540" r="2487.60009765625" id="svg_17"/><circle class="st2" cx="1494.0999755859375" cy="540" r="2468" id="svg_18"/><circle class="st1" cx="1494.0999755859375" cy="540" r="2448.39990234375" id="svg_19"/><circle class="st2" cx="1494.0999755859375" cy="540" r="2428.800048828125" id="svg_20"/><circle class="st1" cx="1494.0999755859375" cy="540" r="2409.10009765625" id="svg_21"/><circle class="st1" cx="1494.0999755859375" cy="540" r="2389.5" id="svg_22"/><circle class="st1" cx="1494.0999755859375" cy="540" r="2370.10009765625" id="svg_23"/><circle class="st1" cx="1494.0999755859375" cy="540" r="2350.5" id="svg_24"/><circle class="st2" cx="1494.0999755859375" cy="540" r="2330.89990234375" id="svg_25"/><circle class="st2" cx="1494.0999755859375" cy="540" r="2311.199951171875" id="svg_26"/><circle class="st1" cx="1494.0999755859375" cy="540" r="2291.60009765625" id="svg_27"/><circle class="st1" cx="1494.0999755859375" cy="540" r="2272" id="svg_28"/><circle class="st2" cx="1494.0999755859375" cy="540" r="2252.39990234375" id="svg_29"/><circle class="st1" cx="1494.0999755859375" cy="540" r="2233" id="svg_30"/><circle class="st2" cx="1494.0999755859375" cy="540" r="2213.39990234375" id="svg_31"/><circle class="st1" cx="1494.0999755859375" cy="540" r="2193.699951171875" id="svg_32"/><circle class="st1" cx="1494.0999755859375" cy="540" r="2174.10009765625" id="svg_33"/><circle class="st1" cx="1494.0999755859375" cy="540" r="2154.5" id="svg_34"/><circle class="st2" cx="1494.0999755859375" cy="540" r="2134.89990234375" id="svg_35"/><circle class="st1" cx="1494.0999755859375" cy="540" r="2115.300048828125" id="svg_36"/><circle class="st1" cx="1494.0999755859375" cy="540" r="2095.800048828125" id="svg_37"/><circle class="st2" cx="1494.0999755859375" cy="540" r="2076.199951171875" id="svg_38"/><circle class="st1" cx="1494.0999755859375" cy="540" r="2056.60009765625" id="svg_39"/><circle class="st2" cx="1494.0999755859375" cy="540" r="2037" id="svg_40"/><circle class="st1" cx="1494.0999755859375" cy="540" r="2017.4000244140625" id="svg_41"/><circle class="st1" cx="1494.0999755859375" cy="540" r="1997.800048828125" id="svg_42"/><circle class="st2" cx="1494.0999755859375" cy="540" r="1978.199951171875" id="svg_43"/><circle class="st1" cx="1494.0999755859375" cy="540" r="1958.699951171875" id="svg_44"/><circle class="st1" cx="1494.0999755859375" cy="540" r="1939.0999755859375" id="svg_45"/><circle class="st1" cx="1494.0999755859375" cy="540" r="1919.5" id="svg_46"/><circle class="st1" cx="1494.0999755859375" cy="540" r="1899.9000244140625" id="svg_47"/><circle class="st1" cx="1494.0999755859375" cy="540" r="1880.300048828125" id="svg_48"/><circle class="st1" cx="1494.0999755859375" cy="540" r="1860.699951171875" id="svg_49"/><circle class="st1" cx="1494.0999755859375" cy="540" r="1841.0999755859375" id="svg_50"/><circle class="st1" cx="1494.0999755859375" cy="540" r="1821.5999755859375" id="svg_51"/><circle class="st2" cx="1494.0999755859375" cy="540" r="1802" id="svg_52"/><circle class="st1" cx="1494.0999755859375" cy="540" r="1782.4000244140625" id="svg_53"/><circle class="st2" cx="1494.0999755859375" cy="540" r="1762.800048828125" id="svg_54"/><circle class="st1" cx="1494.0999755859375" cy="540" r="1743.199951171875" id="svg_55"/><circle class="st1" cx="1494.0999755859375" cy="540" r="1723.5999755859375" id="svg_56"/><circle class="st2" cx="1494.0999755859375" cy="540" r="1704" id="svg_57"/><circle class="st1" cx="1494.0999755859375" cy="540" r="1684.5" id="svg_58"/><circle class="st2" cx="1494.0999755859375" cy="540" r="1664.9000244140625" id="svg_59"/><circle class="st2" cx="1494.0999755859375" cy="540" r="1645.300048828125" id="svg_60"/><circle class="st1" cx="1494.0999755859375" cy="540" r="1625.699951171875" id="svg_61"/><circle class="st1" cx="1494.0999755859375" cy="540" r="1606.0999755859375" id="svg_62"/><circle class="st2" cx="1494.0999755859375" cy="540" r="1586.5" id="svg_63"/><circle class="st1" cx="1494.0999755859375" cy="540" r="1566.9000244140625" id="svg_64"/><circle class="st2" cx="1494.0999755859375" cy="540" r="1547.4000244140625" id="svg_65"/><circle class="st1" cx="1494.0999755859375" cy="540" r="1527.800048828125" id="svg_66"/><circle class="st1" cx="1494.0999755859375" cy="540" r="1508.199951171875" id="svg_67"/><circle class="st2" cx="1494.0999755859375" cy="540" r="1488.5999755859375" id="svg_68"/><circle class="st2" cx="1494.0999755859375" cy="540" r="1469" id="svg_69"/><circle class="st1" cx="1494.0999755859375" cy="540" r="1449.4000244140625" id="svg_70"/><circle class="st1" cx="1494.0999755859375" cy="540" r="1429.9000244140625" id="svg_71"/><circle class="st2" cx="1494.0999755859375" cy="540" r="1410.300048828125" id="svg_72"/><circle class="st1" cx="1494.0999755859375" cy="540" r="1390.699951171875" id="svg_73"/><circle class="st2" cx="1494.0999755859375" cy="540" r="1371.0999755859375" id="svg_74"/><circle class="st1" cx="1494.0999755859375" cy="540" r="1351.5" id="svg_75"/><circle class="st1" cx="1494.0999755859375" cy="540" r="1331.9000244140625" id="svg_76"/><circle class="st2" cx="1494.0999755859375" cy="540" r="1312.300048828125" id="svg_77"/><circle class="st1" cx="1494.0999755859375" cy="540" r="1292.800048828125" id="svg_78"/><circle class="st2" cx="1494.0999755859375" cy="540" r="1273.199951171875" id="svg_79"/><circle class="st1" cx="1494.0999755859375" cy="540" r="1253.5999755859375" id="svg_80"/><circle class="st1" cx="1494.0999755859375" cy="540" r="1234" id="svg_81"/><circle class="st1" cx="1494.0999755859375" cy="540" r="1214.4000244140625" id="svg_82"/><circle class="st2" cx="1494.0999755859375" cy="540" r="1194.800048828125" id="svg_83"/><circle class="st1" cx="1494.0999755859375" cy="540" r="1175.199951171875" id="svg_84"/><circle class="st1" cx="1494.0999755859375" cy="540" r="1155.699951171875" id="svg_85"/><circle class="st3" cx="1494" cy="540" r="1136.0999755859375" id="svg_86"/><circle class="st1" cx="1494.0999755859375" cy="540" r="1116.5" id="svg_87"/><circle class="st3" cx="1494" cy="540" r="1096.9000244140625" id="svg_88"/><circle class="st1" cx="1494.0999755859375" cy="540" r="1077.300048828125" id="svg_89"/><circle class="st1" cx="1494.0999755859375" cy="540" r="1057.699951171875" id="svg_90"/><circle class="st3" cx="1494" cy="540" r="1038" id="svg_91"/><circle class="st1" cx="1494.0999755859375" cy="540" r="1018.5999755859375" id="svg_92"/><circle class="st3" cx="1494" cy="540" r="999" id="svg_93"/><circle class="st3" cx="1494" cy="540" r="979.4000244140625" id="svg_94"/><circle class="st1" cx="1494.0999755859375" cy="540" r="959.7999877929688" id="svg_95"/><circle class="st1" cx="1494.0999755859375" cy="540" r="940.2000122070312" id="svg_96"/><circle class="st3" cx="1494" cy="540" r="920.5" id="svg_97"/><circle class="st1" cx="1494.0999755859375" cy="540" r="900.9000244140625" id="svg_98"/><circle class="st2" cx="1494.0999755859375" cy="540" r="881.5" id="svg_99"/><circle class="st1" cx="1494.0999755859375" cy="540" r="861.9000244140625" id="svg_100"/><circle class="st1" cx="1494.0999755859375" cy="540" r="842.2999877929688" id="svg_101"/><circle class="st2" cx="1494.0999755859375" cy="540" r="822.7000122070312" id="svg_102"/><circle class="st1" cx="1494.0999755859375" cy="540" r="803" id="svg_103"/><circle class="st1" cx="1494.0999755859375" cy="540" r="783.4000244140625" id="svg_104"/><circle class="st1" cx="1494.0999755859375" cy="540" r="763.7999877929688" id="svg_105"/><circle class="st1" cx="1494.0999755859375" cy="540" r="744.4000244140625" id="svg_106"/><circle class="st1" cx="1494.0999755859375" cy="540" r="724.7999877929688" id="svg_107"/><circle transform="rotate(-45.000999450683594 1493.9859619140627,540.0599975585936) " class="st3" cx="1494" cy="540" r="705.0999755859375" id="svg_108"/><circle class="st1" cx="1494.0999755859375" cy="540" r="685.5" id="svg_109"/><circle class="st1" cx="1494.0999755859375" cy="540" r="665.9000244140625" id="svg_110"/><circle class="st2" cx="1494.0999755859375" cy="540" r="646.2999877929688" id="svg_111"/><circle class="st1" cx="1494.0999755859375" cy="540" r="626.7000122070312" id="svg_112"/><circle class="st2" cx="1494.0999755859375" cy="540" r="607.2999877929688" id="svg_113"/><circle class="st1" cx="1494.0999755859375" cy="540" r="587.5999755859375" id="svg_114"/><circle class="st1" cx="1494.0999755859375" cy="540" r="568" id="svg_115"/><circle class="st2" cx="1494.0999755859375" cy="540" r="548.4000244140625" id="svg_116"/><circle class="st2" cx="1494.0999755859375" cy="540" r="528.7999877929688" id="svg_117"/><circle class="st1" cx="1494.0999755859375" cy="540" r="509.20001220703125" id="svg_118"/><circle class="st1" cx="1494.0999755859375" cy="540" r="489.70001220703125" id="svg_119"/><circle class="st3" cx="1494" cy="540" r="470.1000061035156" id="svg_120"/><circle class="st1" cx="1494.0999755859375" cy="540" r="450.5" id="svg_121"/><circle class="st3" cx="1494" cy="540" r="430.8999938964844" id="svg_122"/><circle class="st1" cx="1494.0999755859375" cy="540" r="411.29998779296875" id="svg_123"/><circle class="st1" cx="1494.0999755859375" cy="540" r="391.70001220703125" id="svg_124"/><circle class="st3" cx="1494" cy="540" r="372.1000061035156" id="svg_125"/><circle class="st1" cx="1494.0999755859375" cy="540" r="352.6000061035156" id="svg_126"/><circle class="st3" cx="1494" cy="540" r="333" id="svg_127"/><circle class="st1" cx="1494.0999755859375" cy="540" r="313.3999938964844" id="svg_128"/><circle class="st1" cx="1494.0999755859375" cy="540" r="293.79998779296875" id="svg_129"/><circle class="st1" cx="1494.0999755859375" cy="540" r="274.20001220703125" id="svg_130"/><circle class="st3" cx="1494" cy="540" r="254.60000610351562" id="svg_131"/><circle class="st1" cx="1494.0999755859375" cy="540" r="235" id="svg_132"/><circle class="st1" cx="1494.199951171875" cy="540" r="215.5" id="svg_133"/><circle class="st1" cx="1494.199951171875" cy="540" r="195.89999389648438" id="svg_134"/><circle class="st1" cx="1494.0999755859375" cy="540" r="176.3000030517578" id="svg_135"/><path class="st1" d="M1650.8 540c0 86.5-70.2 156.7-156.7 156.7s-156.7-70.2-156.7-156.7 70.2-156.7 156.7-156.7c86.6 0 156.7 70.2 156.7 156.7z" id="svg_136"/><circle class="st1" cx="1494.0999755859375" cy="540" r="137.10000610351562" id="svg_137"/><path class="st1" d="M1611.7 540c0 64.9-52.6 117.5-117.5 117.5s-117.5-52.6-117.5-117.5 52.6-117.5 117.5-117.5 117.5 52.6 117.5 117.5z" id="svg_138"/><path class="st1" d="M1592.1 540c0 54.1-43.9 97.9-97.9 97.9-54.1 0-97.9-43.9-97.9-97.9 0-54.1 43.9-97.9 97.9-97.9s97.9 43.8 97.9 97.9z" id="svg_139"/><circle class="st1" cx="1494.0999755859375" cy="540" r="78.4000015258789" id="svg_140"/></g></svg>