<svg width="322" height="200" viewBox="0 0 322 200" fill="none" xmlns="http://www.w3.org/2000/svg">
<path fill-rule="evenodd" clip-rule="evenodd" d="M73.9019 81.2095C71.0803 81.7439 67.798 83.119 65.8573 84.5795C62.2115 87.3233 59.6329 91.106 58.5518 95.2969C57.7539 98.389 57.8291 102.086 58.7543 105.266C61.2786 113.941 69.7069 119.687 78.7038 118.867C87.982 118.022 95.1581 110.872 96.0236 101.61C96.2875 98.7851 95.8313 95.6222 94.7881 93.0471C93.6879 90.3311 92.3888 88.3992 90.2724 86.3317C87.7686 83.8858 84.4695 82.1202 80.9505 81.3426C79.5073 81.0239 75.3018 80.9444 73.9019 81.2095ZM78.9857 82.1102C85.8285 82.8563 91.6685 87.4365 94.0064 93.8909C94.8094 96.1077 94.9727 97.124 94.9771 99.9312C94.981 102.321 94.9495 102.672 94.612 103.993C93.9333 106.649 92.8191 109.028 91.3869 110.877C90.6911 111.775 88.7425 113.702 87.857 114.367C86.2267 115.592 83.4093 116.921 81.4343 117.398C79.0492 117.974 75.5649 118.041 73.3464 117.554C69.8287 116.782 66.7998 115.125 64.2906 112.6C61.6825 109.975 60.1396 107.096 59.3733 103.425C58.9902 101.59 58.9567 98.7255 59.2964 96.8387C60.973 87.5261 69.5835 81.085 78.9857 82.1102ZM76.5817 90.4677C76.4981 90.5233 75.2615 92.7374 73.8338 95.3877C72.4059 98.0381 70.8059 100.997 70.2779 101.963C69.245 103.854 69.1497 104.307 69.77 104.379C70.1055 104.418 70.2017 104.293 70.9966 102.796C72.5195 99.9262 76.7084 92.2251 76.8112 92.1053C76.866 92.0417 77.4861 93.002 78.1892 94.2393C78.8923 95.4768 80.0293 97.4805 80.7158 98.6921C81.4025 99.9037 82.265 101.412 82.6325 102.044C83.0001 102.676 83.3008 103.249 83.3008 103.317C83.3008 103.389 81.261 103.442 78.4619 103.442H73.6229V103.924V104.406H79.1439C84.6148 104.406 84.6655 104.403 84.7561 104.119C84.8231 103.909 84.5093 103.243 83.5716 101.607C82.0604 98.9694 80.5031 96.2342 78.7374 93.116C77.1417 90.2979 77.0345 90.1663 76.5817 90.4677ZM122.358 91.6742C122.054 91.774 121.634 91.8605 121.425 91.8663C120.958 91.8793 120.956 91.9135 121.396 92.352L121.747 92.702L121.707 99.8962C121.685 103.853 121.611 107.204 121.544 107.342C121.477 107.48 121.259 107.666 121.06 107.754C120.731 107.899 120.775 107.917 121.563 107.956C122.038 107.979 122.816 107.979 123.291 107.956C124.079 107.917 124.123 107.899 123.794 107.754C123.595 107.666 123.377 107.48 123.31 107.342C123.243 107.204 123.169 103.575 123.147 99.2772C123.125 94.9798 123.063 91.4703 123.009 91.4783C122.955 91.4863 122.662 91.5744 122.358 91.6742ZM170.54 91.6772C170.198 91.7748 169.715 91.8596 169.468 91.8658C168.914 91.8795 168.89 92.0432 169.412 92.2398C169.723 92.3567 169.824 92.4999 169.895 92.9239C170.033 93.7576 170.003 97.9088 169.858 97.998C169.786 98.0418 169.46 97.968 169.132 97.834C168.18 97.4459 166.521 97.5102 165.557 97.9727C163.45 98.9844 162.239 101.123 162.422 103.511C162.568 105.409 163.419 106.834 164.891 107.646C165.574 108.022 165.74 108.054 167.014 108.054C168.45 108.054 168.965 107.903 169.65 107.281C169.932 107.025 169.938 107.027 170.164 107.5C170.428 108.05 170.806 108.191 171.739 108.086C172.168 108.038 172.484 107.902 172.726 107.661C173.164 107.225 173.084 107.111 172.497 107.331C171.97 107.529 171.631 107.375 171.49 106.871C171.439 106.689 171.391 103.148 171.383 99.0019C171.375 94.856 171.323 91.4719 171.266 91.4818C171.208 91.4916 170.882 91.5796 170.54 91.6772ZM255.774 91.6742C255.47 91.774 255.049 91.8605 254.841 91.8663C254.391 91.8788 254.354 92.0198 254.737 92.258C255.008 92.4265 255.014 92.579 255.014 99.8083V107.187L254.584 107.586L254.155 107.986H255.759C257.224 107.986 257.787 107.852 257.089 107.671C256.938 107.631 256.751 107.434 256.674 107.233C256.591 107.016 256.534 105.237 256.534 102.885V98.9033L257.26 98.5249C257.874 98.2052 258.157 98.1463 259.092 98.144C260.042 98.1418 260.264 98.1883 260.665 98.4729C261.444 99.0266 261.641 99.6898 261.741 102.089C261.788 103.25 261.781 104.878 261.723 105.707C261.625 107.145 261.6 107.233 261.205 107.6L260.791 107.986H262.395C263.982 107.986 264.289 107.904 263.693 107.64C263.525 107.565 263.345 107.349 263.292 107.159C263.241 106.97 263.191 105.355 263.184 103.57C263.168 99.8533 263.053 99.2033 262.265 98.4192C261.321 97.4792 259.243 97.2621 257.502 97.9219C257.083 98.0804 256.695 98.2101 256.638 98.2101C256.581 98.2102 256.534 96.6923 256.534 94.837C256.534 92.9817 256.487 91.4703 256.431 91.4783C256.374 91.4863 256.078 91.5744 255.774 91.6742ZM111.213 98.9969C109.73 102.935 108.347 106.396 108.118 106.741C107.873 107.11 107.476 107.479 107.15 107.641L106.597 107.917L107.536 107.958C108.052 107.98 108.861 107.979 109.333 107.956C110.14 107.916 110.169 107.903 109.809 107.745C109.36 107.548 109.118 107.016 109.242 106.496C109.384 105.9 110.71 102.288 110.857 102.096C110.958 101.964 111.553 101.93 113.285 101.959L115.579 101.996L116.311 104.337C116.714 105.624 117.026 106.863 117.005 107.09C116.976 107.389 116.853 107.558 116.551 107.709C116.137 107.917 116.137 107.917 117.063 107.957C117.574 107.98 118.445 107.979 118.999 107.957C119.913 107.919 119.973 107.9 119.636 107.751C119.431 107.66 119.205 107.474 119.134 107.338C119.062 107.202 117.967 103.807 116.7 99.7935C114.225 91.9522 114.199 91.8769 114.015 91.8769C113.948 91.8769 112.687 95.0808 111.213 98.9969ZM189.342 92.3022C189.342 92.3469 189.496 92.4532 189.684 92.5384C189.872 92.6238 190.074 92.8661 190.133 93.0769C190.271 93.5669 190.275 106.694 190.138 107.18C190.073 107.413 189.872 107.611 189.585 107.728C189.144 107.907 189.155 107.911 190.143 107.954C190.698 107.978 191.569 107.979 192.079 107.956C192.942 107.917 192.98 107.903 192.623 107.746C192.413 107.653 192.18 107.417 192.105 107.222C192.03 107.026 191.969 105.538 191.969 103.915V100.964H192.644C193.034 100.964 193.382 101.041 193.469 101.146C193.553 101.246 194.189 102.376 194.883 103.658C196.94 107.459 197.466 107.976 199.277 107.983L200.157 107.986L199.443 107.348C199.052 106.997 198.46 106.331 198.13 105.868C197.562 105.071 195.107 100.813 195.183 100.754C195.202 100.739 195.605 100.555 196.078 100.346C197.226 99.8391 198.227 98.7951 198.525 97.7923C199.258 95.3365 198 93.153 195.426 92.4111C194.797 92.2299 189.343 92.1323 189.342 92.3022ZM194.613 92.9808C195.339 93.1815 196.317 94.2748 196.59 95.1892C196.844 96.0385 196.873 97.4896 196.653 98.2786C196.292 99.5749 194.823 100.413 192.912 100.413H191.969V96.7057C191.969 93.2908 191.988 92.9936 192.211 92.9355C192.672 92.8156 194.114 92.8428 194.613 92.9808ZM114.396 98.2317C114.859 99.72 115.238 101.006 115.238 101.089C115.238 101.191 114.593 101.239 113.233 101.239C111.818 101.239 111.228 101.193 111.228 101.081C111.228 100.995 111.666 99.74 112.2 98.2933C112.735 96.8467 113.203 95.5752 113.242 95.468C113.374 95.0956 113.556 95.5311 114.396 98.2317ZM128.579 97.6423C127.449 97.9414 126.465 98.7363 126.086 99.6558C125.664 100.682 125.666 100.688 126.342 100.688H126.958L127.056 100.038C127.247 98.7717 128.698 97.7839 129.949 98.0682C130.747 98.2494 131.118 98.695 131.277 99.6615C131.417 100.514 131.466 103.344 131.343 103.466C131.304 103.505 130.947 103.424 130.548 103.287C129.746 103.011 128.3 102.955 127.526 103.169C125.602 103.701 124.711 105.829 125.848 107.175C126.854 108.365 129.229 108.457 130.669 107.363C131.186 106.971 131.414 106.931 131.414 107.234C131.414 107.638 132.058 108.123 132.596 108.123C133.132 108.123 133.805 107.735 134.047 107.285C134.182 107.035 134.155 107.022 133.649 107.103C133.267 107.164 133.072 107.134 132.986 107.002C132.92 106.899 132.834 105.111 132.796 103.029C132.73 99.4303 132.712 99.2187 132.423 98.7557C131.967 98.0256 131.182 97.6478 129.993 97.5851C129.443 97.5562 128.807 97.5818 128.579 97.6423ZM136.46 97.7812C135.156 98.0806 135.178 98.0702 135.492 98.2421C135.644 98.3252 135.814 98.4605 135.87 98.5427C135.997 98.7299 135.982 106.691 135.854 107.159C135.802 107.349 135.622 107.565 135.453 107.64C134.856 107.904 135.165 107.986 136.766 107.986H138.385L137.906 107.588L137.428 107.19L137.38 103.312C137.354 101.179 137.367 99.2957 137.41 99.127C137.525 98.6718 138.628 98.1858 139.709 98.1145C140.863 98.0384 141.44 98.315 141.92 99.174C142.266 99.793 142.267 99.7971 142.267 103.558V107.323L141.852 107.654L141.437 107.984L143.076 107.985L144.715 107.986L144.286 107.586L143.856 107.187L143.852 104.247C143.848 101.716 143.753 100.102 143.56 99.3169C143.484 99.0063 145.105 98.2041 145.993 98.1128C146.921 98.0174 147.315 98.114 147.86 98.5708C148.673 99.2516 148.741 99.591 148.802 103.238C148.862 106.782 148.79 107.425 148.309 107.64C147.716 107.904 148.022 107.986 149.609 107.986H151.213L150.802 107.603L150.391 107.22L150.317 103.645C150.237 99.7945 150.169 99.3758 149.491 98.5569C148.951 97.9044 148.447 97.6646 147.412 97.5683C146.369 97.4714 145.106 97.7619 144.017 98.3497L143.262 98.7568L142.956 98.4279C142.002 97.4027 139.684 97.2422 138.023 98.0863L137.505 98.3492L137.397 97.9699L137.289 97.5906L136.46 97.7812ZM155.816 97.7056C154.478 98.1481 153.502 99.0356 152.865 100.389C152.531 101.099 152.497 101.321 152.497 102.823C152.497 104.32 152.532 104.547 152.862 105.248C153.357 106.301 154.114 107.097 155.116 107.618C155.909 108.031 156.035 108.054 157.475 108.054C159.147 108.054 159.638 107.892 160.651 107.007C161.186 106.538 161.324 106.164 160.827 106.527C160.054 107.092 159.413 107.291 158.354 107.294C157.463 107.297 157.183 107.237 156.558 106.912C155.122 106.164 154.309 104.618 154.3 102.616L154.295 101.446L157.666 101.409L161.037 101.372L160.952 100.754C160.785 99.5421 159.851 98.3483 158.687 97.8598C157.97 97.5587 156.498 97.4797 155.816 97.7056ZM176.509 97.775C175.651 98.0806 174.764 98.8708 174.397 99.6558C173.996 100.515 174.042 100.688 174.671 100.688C175.196 100.688 175.211 100.674 175.373 100.034C175.775 98.4418 177.255 97.6107 178.655 98.192C179.492 98.5392 179.59 98.8534 179.642 101.342C179.667 102.573 179.667 103.58 179.642 103.58C179.616 103.58 179.268 103.456 178.868 103.304C177.978 102.968 176.519 102.94 175.626 103.243C174.872 103.499 174.066 104.259 173.847 104.922C173.627 105.583 173.753 106.627 174.113 107.13C174.551 107.742 175.44 108.123 176.425 108.122C177.499 108.121 178.117 107.94 178.955 107.378L179.643 106.917L179.726 107.248C179.968 108.206 181.097 108.434 181.941 107.696C182.21 107.461 182.43 107.17 182.43 107.049C182.43 106.878 182.393 106.866 182.264 106.994C181.985 107.272 181.354 107.197 181.251 106.874C181.201 106.717 181.141 104.997 181.118 103.053C181.076 99.478 181.011 98.9783 180.519 98.4367C179.78 97.6226 177.837 97.3019 176.509 97.775ZM203.334 97.7736C201.958 98.264 200.907 99.383 200.401 100.901C200.146 101.662 200.104 102.038 200.153 103.145C200.201 104.29 200.27 104.601 200.65 105.387C201.144 106.407 201.832 107.1 202.92 107.671C203.592 108.023 203.776 108.054 205.173 108.054C206.552 108.054 206.757 108.021 207.385 107.689C208.077 107.322 208.948 106.537 208.813 106.402C208.773 106.362 208.579 106.456 208.381 106.611C207.752 107.104 207.087 107.297 206.023 107.297C205.168 107.297 204.873 107.233 204.257 106.913C202.854 106.182 202.038 104.624 202.009 102.616L201.993 101.446L205.345 101.409L208.698 101.372L208.697 100.927C208.695 100.32 208.146 99.2004 207.587 98.657C206.536 97.6402 204.751 97.2693 203.334 97.7736ZM212.638 97.6509C211.924 97.825 211.084 98.3247 210.772 98.7617C209.739 100.204 210.328 101.904 212.224 102.958C214.4 104.167 214.918 104.707 214.92 105.762C214.92 107.034 214.241 107.711 212.963 107.71C211.684 107.709 211.004 107.095 210.703 105.672L210.538 104.888L210.454 105.507C210.408 105.848 210.336 106.425 210.296 106.789L210.222 107.452L210.877 107.752C211.853 108.2 214.025 108.188 214.958 107.731C215.744 107.345 216.225 106.76 216.451 105.917C216.591 105.399 216.58 105.171 216.385 104.503C216.093 103.503 215.496 102.902 213.917 102.02C213.278 101.663 212.562 101.17 212.327 100.926C211.199 99.7554 211.994 97.9348 213.634 97.9348C214.629 97.9348 215.39 98.4755 215.814 99.4857C215.932 99.7686 216.06 100 216.096 100C216.133 100 216.164 99.5135 216.164 98.9188V97.8375L215.204 97.6797C214.148 97.506 213.274 97.4962 212.638 97.6509ZM221.169 97.7736C219.197 98.4759 217.961 100.422 217.961 102.823C217.961 105.019 218.904 106.684 220.65 107.573C221.556 108.034 221.661 108.054 223.063 108.054C224.383 108.054 224.596 108.018 225.22 107.689C225.912 107.322 226.783 106.537 226.648 106.402C226.608 106.362 226.414 106.456 226.216 106.611C225.589 107.102 224.922 107.297 223.869 107.297C222.211 107.297 221.166 106.637 220.381 105.094C219.996 104.339 219.721 102.938 219.783 102.059L219.828 101.446L223.18 101.409L226.533 101.372L226.532 100.927C226.53 100.32 225.981 99.2004 225.421 98.657C224.371 97.6402 222.586 97.2693 221.169 97.7736ZM230.842 97.7172C230.513 97.8243 229.995 98.0845 229.689 98.2954C229.093 98.7069 228.334 99.8719 228.332 100.379C228.33 100.647 228.402 100.688 228.868 100.688C229.378 100.688 229.41 100.663 229.501 100.177C229.786 98.6645 231.137 97.713 232.485 98.0744C233.638 98.3837 233.859 98.9644 233.859 101.698C233.861 103.169 233.82 103.586 233.688 103.531C231.629 102.672 229.327 102.975 228.365 104.233C228.066 104.623 227.982 104.9 227.942 105.63C227.899 106.406 227.939 106.611 228.216 107.022C229.107 108.347 231.458 108.507 233.201 107.361C233.484 107.174 233.742 107.022 233.772 107.022C233.802 107.022 233.905 107.21 234.002 107.44C234.212 107.946 234.513 108.123 235.16 108.123C235.692 108.123 236.626 107.446 236.626 107.06C236.626 106.893 236.586 106.884 236.427 107.015C236.091 107.293 235.474 107.137 235.366 106.746C235.314 106.557 235.264 104.822 235.254 102.891C235.239 99.5132 235.226 99.3597 234.925 98.8302C234.481 98.0492 233.693 97.6526 232.442 97.5802C231.802 97.5433 231.225 97.5926 230.842 97.7172ZM239.183 97.7403C238.879 97.8357 238.459 97.9184 238.25 97.9242C237.804 97.9366 237.754 98.139 238.146 98.3479C238.413 98.4905 238.423 98.6362 238.423 102.841V107.187L237.993 107.586L237.564 107.986L239.203 107.985L240.842 107.984L240.428 107.654L240.013 107.324L239.973 103.197L239.933 99.0704L240.372 98.7018C241.017 98.1621 241.59 98.25 241.929 98.9399C242.177 99.446 242.207 99.4618 242.828 99.4218L243.469 99.3805L243.426 98.8986C243.309 97.5551 241.896 97.1137 240.574 98.0072C239.953 98.4262 239.944 98.4263 239.944 98.0118C239.944 97.5697 239.843 97.5336 239.183 97.7403ZM247.827 97.7337C246.263 98.1705 245.058 99.2272 244.48 100.668C244.224 101.307 244.167 101.717 244.165 102.96C244.161 104.317 244.199 104.556 244.528 105.256C245.02 106.301 245.887 107.208 246.837 107.673C247.546 108.02 247.755 108.054 249.138 108.054C250.809 108.054 251.301 107.892 252.313 107.007C253.025 106.384 252.909 106.232 252.145 106.783C251.308 107.385 250.743 107.573 249.774 107.569C247.769 107.562 246.346 106.03 245.99 103.493C245.803 102.173 246.01 100.917 246.609 99.7298C247.322 98.3177 248.48 97.7166 249.953 97.992C250.544 98.1021 251.225 98.7466 251.35 99.3112C251.438 99.7139 251.462 99.7247 252.259 99.7247C253.198 99.7247 253.252 99.63 252.735 98.8733C251.979 97.7653 249.651 97.2245 247.827 97.7337ZM158.186 98.3593C158.642 98.777 159.028 99.6271 159.087 100.344L159.133 100.895L156.748 100.933C154.484 100.968 154.364 100.957 154.364 100.709C154.364 99.9923 155.202 98.6502 155.935 98.1908C156.542 97.8109 157.68 97.8961 158.186 98.3593ZM206.019 98.5241C206.485 99.0312 206.991 100.395 206.848 100.765C206.738 101.052 202.062 101.062 202.062 100.775C202.062 100.401 202.489 99.3905 202.842 98.9308C203.428 98.1641 203.95 97.911 204.816 97.9748C205.463 98.0227 205.625 98.0963 206.019 98.5241ZM223.768 98.4173C224.221 98.8496 224.579 99.6751 224.632 100.413L224.667 100.895L222.264 100.933L219.861 100.97L219.951 100.522C220.137 99.5932 220.761 98.6435 221.487 98.1828C222.112 97.7859 223.227 97.9004 223.768 98.4173ZM168.745 98.4511C169.965 99.0872 170.007 99.2433 169.958 102.891C169.912 106.361 169.841 106.66 168.97 107.072C168.338 107.37 167.154 107.354 166.453 107.037C165.728 106.709 164.946 105.791 164.634 104.903C164.257 103.828 164.304 101.302 164.72 100.239C165.496 98.2585 167.052 97.5675 168.745 98.4511ZM130.778 103.813C131.366 104.113 131.409 104.21 131.411 105.236C131.414 106.321 131.233 106.623 130.303 107.093C128.939 107.781 127.547 107.411 127.142 106.254C126.608 104.728 127.913 103.317 129.672 103.518C130.046 103.56 130.543 103.693 130.778 103.813ZM179.091 103.816L179.595 104.062L179.635 105.181C179.675 106.296 179.674 106.301 179.22 106.682C178.598 107.204 177.993 107.435 177.243 107.435C176.189 107.435 175.662 107.042 175.374 106.041C175.125 105.176 175.898 103.867 176.827 103.58C177.396 103.405 178.478 103.518 179.091 103.816ZM233.287 103.816L233.791 104.062L233.831 105.181C233.872 106.296 233.87 106.301 233.417 106.682C232.478 107.47 231.153 107.679 230.316 107.171C229.698 106.795 229.363 105.878 229.568 105.122C229.747 104.456 230.383 103.775 231 103.586C231.59 103.406 232.666 103.514 233.287 103.816ZM69.4753 108.652V109.225H77.0793H84.6833V108.743V108.261H81.2495C79.3608 108.261 75.939 108.22 73.6455 108.17L69.4753 108.079V108.652Z" fill="white"/>
</svg>
