<svg width="322" height="200" viewBox="0 0 322 200" fill="none" xmlns="http://www.w3.org/2000/svg">
<path d="M174.643 112.296V83.0005H180.362V112.296H174.643Z" fill="white"/>
<path d="M107.989 121H95.7278V91.7041H107.496C113.215 91.7041 116.548 94.9136 116.548 99.9329C116.548 103.182 114.408 105.282 112.928 105.982C114.698 106.805 116.961 108.655 116.961 112.565C116.961 118.037 113.215 121 107.989 121ZM107.043 96.8067H101.447V103.556H107.043C109.469 103.556 110.829 102.199 110.829 100.183C110.829 98.1632 109.472 96.8067 107.043 96.8067ZM107.413 108.698H101.447V115.897H107.413C110.006 115.897 111.239 114.251 111.239 112.278C111.242 110.302 110.006 108.698 107.413 108.698Z" fill="white"/>
<path d="M134.405 108.985V121H128.726V108.985L119.921 91.7041H126.133L131.606 103.512L136.995 91.7041H143.208L134.405 108.985Z" fill="white"/>
<path d="M159.421 121H147.16V91.7041H158.928C164.647 91.7041 167.98 94.9136 167.98 99.9329C167.98 103.182 165.84 105.282 164.361 105.982C166.13 106.805 168.393 108.655 168.393 112.565C168.39 118.037 164.644 121 159.421 121ZM158.475 96.8067H152.879V103.556H158.475C160.901 103.556 162.261 102.199 162.261 100.183C162.258 98.1632 160.901 96.8067 158.475 96.8067ZM158.845 108.698H152.879V115.897H158.845C161.438 115.897 162.671 114.251 162.671 112.278C162.671 110.302 161.435 108.698 158.845 108.698Z" fill="white"/>
<path d="M198.797 96.8067V121H193.077V96.8067H185.425V91.7041H206.452V96.8067H198.797Z" fill="white"/>
</svg>
