<svg width="845" height="126" viewBox="0 0 845 126" fill="none" xmlns="http://www.w3.org/2000/svg">
<path d="M452.133 24.8679C440 28.8679 431.6 36.6012 428 47.0012C425.467 54.6012 425.733 73.6679 428.667 80.2012C432.267 88.8679 437.467 94.4679 444.667 97.8012C457.333 103.668 472.667 101.135 480.4 91.8012C482.4 89.5346 484.267 87.6679 484.667 87.6679C485.067 87.6679 485.467 90.6012 485.467 94.3346V101.001H490.8H496.133V79.6679V58.3346H474.133H452.133V63.6679V68.8679L468.533 69.2679L484.8 69.6679L484.4 73.6679C483.333 83.9346 476.667 88.3346 462 88.3346C452.133 88.3346 450.667 87.9346 447.467 85.0012C436.267 74.6012 434.533 57.6679 443.2 44.8679C451.067 33.1346 470.933 32.8679 477.733 44.3346C480.267 48.7346 480.667 49.0012 485.867 48.2012C492.8 47.1346 492.933 47.0012 491.2 43.2679C488.8 38.0679 482.8 31.8012 476.667 28.2012C470.4 24.4679 458.267 22.8679 452.133 24.8679Z" fill="white"/>
<path d="M530.8 24.8679C522.933 27.4013 516.133 31.9346 512.267 37.2679C498 56.6013 503.6 87.2679 523.333 97.2679C530.133 100.735 544.4 101.935 551.6 99.6679C564.533 95.6679 571.867 87.2679 575.6 72.8679C580.4 54.0679 572 34.3346 556.267 27.2679C549.733 24.4679 536.133 23.1346 530.8 24.8679ZM549.867 37.5346C555.333 39.6679 560.667 46.0679 562.8 52.4679C566.4 63.2679 562.133 79.9346 554.4 85.5346C548.933 89.5346 532.667 89.5346 527.2 85.5346C512.4 74.6013 513.733 46.6013 529.467 38.6013C536.133 35.2679 543.6 34.8679 549.867 37.5346Z" fill="white"/>
<path d="M87.7334 25.8011C87.2 26.3345 86.8 42.8678 86.8 62.6011V98.3345H94.1334H101.467L101.2 61.9345L100.8 25.6678L94.8 25.2678C91.4667 25.0011 88.2667 25.2678 87.7334 25.8011Z" fill="white"/>
<path d="M214.533 25.8011C213.867 26.3345 213.467 42.8678 213.467 62.6011V98.3345H230.267C251.467 98.3345 257.067 96.8678 265.467 89.4011C273.6 82.0678 276.8 74.4678 276.667 61.6678C276.667 49.9345 274.4 43.4011 268.267 36.6011C260.533 28.0678 254.4 26.0678 233.467 25.4011C223.6 25.0011 215.067 25.1345 214.533 25.8011ZM252.933 40.0678C266.133 46.8678 269.067 68.3345 258.267 80.0678C253.333 85.5345 246.8 87.6678 235.2 87.6678H226.8V62.2011V36.6011L237.867 37.2678C244 37.6678 250.667 38.8678 252.933 40.0678Z" fill="white"/>
<path d="M286.8 61.5345V98.3345H292.8H298.667L299.067 84.6011L299.467 71.0011H313.6C332 71.0011 332.133 71.1345 332.133 86.4678V98.3345H338.133H344.133V87.2678C344.133 75.5345 342.533 67.8011 339.867 66.0678C338.933 65.5345 336.133 65.0011 333.867 65.0011C327.733 65.0011 328.133 61.5345 334.267 60.3345C341.6 59.0011 345.467 54.3345 345.467 47.0011C345.467 43.5345 344.267 38.6011 342.8 35.8011C338.667 27.6678 332.933 25.9345 307.867 25.2678L286.8 24.7345V61.5345ZM330.933 40.8678C334.267 44.8678 334.267 52.2011 330.933 55.5345C327.6 58.8678 321.867 59.9345 309.467 59.4011L299.467 59.0011L299.067 49.8011C298.533 36.0678 297.867 36.6011 314.267 37.2678C327.2 37.6678 328.667 38.0678 330.933 40.8678Z" fill="white"/>
<path d="M378.133 27.2678C377.733 28.6011 374.933 36.2011 372.133 44.3344C369.333 52.3344 364 67.6678 360.267 78.3344C356.533 89.0011 353.467 97.8011 353.467 98.0678C353.467 98.3344 356.533 98.3344 360.267 98.0678L367.2 97.6678L370.267 88.3344C372 83.1344 373.467 78.8678 373.467 78.6011C373.467 78.4678 380.533 78.4678 389.067 78.6011L404.667 79.0011L407.6 88.3344L410.533 97.6678L417.2 98.0678L424 98.4678L411.733 62.0678L399.333 25.6678L389.2 25.2678C380.533 25.0011 378.933 25.2678 378.133 27.2678ZM394.667 47.2678C396.8 54.4678 399.067 61.9344 399.467 63.9344L400.4 67.6678H388.933C380.4 67.6678 377.733 67.2678 378.133 65.9344C378.4 65.1344 380.267 59.0011 382.133 52.6011C386.667 37.1344 387.867 34.3344 389.333 34.3344C390 34.3344 392.4 40.2011 394.667 47.2678Z" fill="white"/>
<path d="M586.4 25.9344C585.867 26.3344 585.467 42.8678 585.467 62.6011V98.3344H591.467H597.467V67.6678C597.467 47.9344 598 37.0011 598.8 37.0011C600.267 37.0011 603.867 44.0678 618 75.6678L627.867 97.6678L638.667 98.0678L649.467 98.4678V61.6678V25.0011H643.467H637.467V55.5344C637.467 74.8678 636.933 86.4678 636.133 87.0011C634.8 87.8011 632.133 82.6011 622.133 59.6678C612.667 37.8011 607.467 27.0011 606.133 26.0678C604.4 24.7344 587.6 24.7344 586.4 25.9344Z" fill="white"/>
<path d="M660.133 61.6678V98.3345H666.133H672.133V81.6678V65.0011H690.133H708.133V59.6678V54.3345H690.133H672.133V45.6678V37.0011H691.467H710.8V31.0011V25.0011H685.467H660.133V61.6678Z" fill="white"/>
<path d="M757.467 25.9345C757.467 26.6011 759.2 29.9345 761.333 33.6678C763.333 37.2678 767.733 45.1345 771.067 51.0011C775.333 58.4678 777.867 61.8011 779.867 62.0678C782.667 62.4678 782.8 63.1345 782.8 80.4678V98.3345H788.8H794.8V80.4678C794.8 63.1345 794.933 62.4678 797.6 62.0678C799.733 61.8011 803.2 57.0011 810.267 44.6011C815.733 35.1345 820.133 26.8678 820.133 26.2011C820.133 25.5345 817.333 25.0011 813.733 25.0011H807.467L802.8 33.2678C800.267 37.9345 796.4 45.1345 794.267 49.2678C792 53.5345 789.6 57.0011 788.8 57.0011C788 57.0011 783.6 49.8011 778.933 41.0011L770.4 25.0011H764C760.4 25.0011 757.467 25.4011 757.467 25.9345Z" fill="white"/>
<path d="M718.8 62.3345V98.3345H743.467H768.133V93.0011V87.6678H750.133H732.133V57.0011V26.3345H725.467H718.8V62.3345Z" fill="white"/>
<path d="M24.1333 42.2013V48.868L31.2 51.4013C34.9333 52.868 43.4667 55.668 49.8667 57.668C56.2667 59.8013 61.0667 61.9346 60.5333 62.468C59.8667 63.1346 51.6 66.068 42.1333 69.268L24.8 75.0013L24.4 81.9346L24 88.7346L30 87.0013C33.2 85.9346 41.8667 83.0013 49.0667 80.3346C56.2667 77.8013 64.6667 74.6013 67.8667 73.5346L73.6 71.4013L73.2 61.9346L72.8 52.6013L62.8 49.0013C33.8667 38.7346 25.2 35.668 24.6667 35.668C24.4 35.668 24.1333 38.6013 24.1333 42.2013Z" fill="white"/>
<path d="M144.8 42.068C135.333 45.5346 124.8 49.268 121.467 50.3346L115.467 52.3346V62.2013V72.068L134.133 78.6013C144.4 82.2013 155.333 85.9346 158.533 87.0013L164.267 88.7346L163.867 81.9346L163.467 75.0013L145.2 69.0013C135.067 65.668 126.8 62.6013 126.8 62.068C126.8 61.668 130 60.2013 133.867 59.0013C137.6 57.8013 146 55.0013 152.533 52.7346L164.133 48.7346V42.2013C164.133 38.6013 163.733 35.668 163.2 35.668C162.533 35.8013 154.4 38.6013 144.8 42.068Z" fill="white"/>
</svg>
