<svg width="322" height="200" viewBox="0 0 322 200" fill="none" xmlns="http://www.w3.org/2000/svg">
<path d="M152.927 103.586C152.927 105.075 152.59 106.137 151.916 106.77C151.243 107.404 150.214 107.721 148.829 107.721C148.104 107.721 147.51 107.619 147.046 107.418C146.583 107.216 146.215 106.928 145.94 106.555C145.667 106.183 145.479 105.749 145.378 105.253C145.275 104.758 145.225 104.235 145.225 103.686V103.079H147.74V103.509C147.74 104.255 147.818 104.806 147.977 105.165C148.136 105.524 148.463 105.704 148.958 105.704C149.453 105.704 149.78 105.526 149.939 105.165C150.098 104.806 150.176 104.255 150.176 103.509V93.5197H152.921V103.586H152.927Z" fill="white"/>
<path d="M159.865 106.271C159.585 106.793 159.224 107.166 158.779 107.387C158.335 107.61 157.826 107.719 157.255 107.719C156.416 107.719 155.771 107.494 155.32 107.043C154.87 106.592 154.644 105.839 154.644 104.781V96.9646H157.275V104.231C157.275 104.781 157.365 105.161 157.542 105.378C157.72 105.593 158.006 105.701 158.4 105.701C159.327 105.701 159.792 105.119 159.792 103.957V96.9646H162.423V107.504H159.908V106.269H159.865V106.271Z" fill="white"/>
<path d="M166.689 96.9668V98.044H166.726C167.057 97.5601 167.429 97.2143 167.842 97.005C168.255 96.7957 168.746 96.692 169.32 96.692C169.929 96.692 170.441 96.8361 170.854 97.1223C171.267 97.4102 171.543 97.8271 171.683 98.3762H171.721C171.924 97.8154 172.251 97.3929 172.702 97.1126C173.152 96.8322 173.69 96.692 174.312 96.692C175.189 96.692 175.833 96.9629 176.246 97.5044C176.659 98.0459 176.867 98.8276 176.867 99.8454V107.504H174.236V100.139C174.236 99.6955 174.156 99.3557 173.999 99.1214C173.84 98.887 173.576 98.768 173.208 98.768C172.79 98.768 172.455 98.9121 172.207 99.1983C171.958 99.4862 171.835 99.9432 171.835 100.569V107.504H169.204V100.139C169.204 99.6955 169.123 99.3557 168.965 99.1214C168.806 98.887 168.542 98.768 168.174 98.768C167.756 98.768 167.421 98.9121 167.173 99.1983C166.924 99.4862 166.801 99.9432 166.801 100.569V107.504H164.172V96.9648H166.689V96.9668Z" fill="white"/>
<path d="M181.133 96.9668V98.0824H181.171C181.462 97.5869 181.789 97.2299 182.152 97.0147C182.514 96.7996 182.961 96.692 183.495 96.692C184.575 96.692 185.369 97.126 185.878 97.9941C186.386 98.8622 186.64 100.275 186.64 102.234C186.64 104.193 186.386 105.597 185.878 106.446C185.369 107.295 184.575 107.719 183.495 107.719C183 107.719 182.578 107.625 182.228 107.435C181.879 107.247 181.565 106.941 181.285 106.525H181.247V110.219L178.616 110.893V96.9668H181.133ZM181.505 104.831C181.677 105.413 182.055 105.702 182.639 105.702C183.211 105.702 183.583 105.413 183.755 104.831C183.927 104.249 184.013 103.385 184.013 102.234C184.013 101.086 183.927 100.22 183.755 99.6398C183.583 99.0598 183.211 98.768 182.639 98.768C182.055 98.768 181.677 99.0581 181.505 99.6398C181.333 100.222 181.247 101.086 181.247 102.234C181.249 103.385 181.333 104.249 181.505 104.831Z" fill="white"/>
<path d="M193.686 96.0161C193.45 95.5532 193.022 95.321 192.4 95.321C192.056 95.321 191.774 95.4149 191.552 95.605C191.329 95.7953 191.154 96.1005 191.027 96.525C190.9 96.9494 190.81 97.5043 190.76 98.1899C190.709 98.8755 190.683 99.7148 190.683 100.708C190.683 101.766 190.718 102.62 190.788 103.273C190.857 103.926 190.965 104.433 191.111 104.792C191.257 105.151 191.442 105.393 191.664 105.516C191.886 105.641 192.144 105.703 192.436 105.703C192.677 105.703 192.903 105.66 193.112 105.576C193.321 105.491 193.503 105.32 193.656 105.067C193.809 104.813 193.929 104.452 194.018 103.989C194.106 103.527 194.151 102.916 194.151 102.158H196.896C196.896 102.914 196.838 103.632 196.724 104.312C196.61 104.992 196.397 105.585 196.085 106.094C195.773 106.603 195.336 107.003 194.769 107.289C194.203 107.577 193.471 107.719 192.568 107.719C191.539 107.719 190.72 107.55 190.109 107.21C189.5 106.87 189.033 106.38 188.708 105.741C188.385 105.101 188.173 104.337 188.078 103.45C187.983 102.563 187.936 101.583 187.936 100.512C187.936 99.4535 187.983 98.478 188.078 97.5831C188.173 96.6883 188.383 95.9219 188.708 95.2806C189.031 94.641 189.498 94.1418 190.109 93.7826C190.718 93.4236 191.539 93.245 192.568 93.245C193.547 93.245 194.319 93.4081 194.884 93.7347C195.45 94.061 195.872 94.476 196.15 94.979C196.431 95.4821 196.604 96.0238 196.673 96.6055C196.743 97.1874 196.778 97.7309 196.778 98.2417H194.033C194.039 97.22 193.921 96.4789 193.686 96.0161Z" fill="white"/>
<path d="M198.366 99.942C198.366 99.3275 198.461 98.815 198.651 98.4039C198.842 97.9929 199.1 97.6587 199.423 97.4053C199.747 97.1518 200.128 96.9675 200.567 96.8561C201.006 96.7446 201.471 96.6891 201.968 96.6891C202.755 96.6891 203.392 96.7677 203.874 96.9232C204.356 97.0807 204.732 97.3017 204.999 97.5896C205.266 97.8777 205.448 98.2194 205.543 98.619C205.638 99.0184 205.685 99.4504 205.685 99.9211V105.465C205.685 105.963 205.707 106.347 205.752 106.621C205.797 106.896 205.883 107.19 206.01 107.503H203.495C203.405 107.334 203.34 107.153 203.295 106.965C203.25 106.775 203.209 106.591 203.172 106.406H203.134C202.83 106.955 202.476 107.311 202.077 107.474C201.677 107.637 201.159 107.72 200.524 107.72C200.066 107.72 199.679 107.637 199.362 107.474C199.044 107.311 198.79 107.086 198.599 106.798C198.409 106.51 198.268 106.187 198.181 105.828C198.091 105.469 198.048 105.114 198.048 104.76C198.048 104.265 198.099 103.837 198.201 103.478C198.302 103.119 198.459 102.811 198.668 102.558C198.878 102.304 199.145 102.091 199.468 101.92C199.791 101.751 200.184 101.599 200.64 101.469L202.127 101.058C202.521 100.954 202.794 100.81 202.947 100.628C203.101 100.445 203.175 100.176 203.175 99.825C203.175 99.4198 203.084 99.1029 202.899 98.8744C202.714 98.6458 202.4 98.5307 201.955 98.5307C201.548 98.5307 201.243 98.6556 201.04 98.9031C200.836 99.1508 200.735 99.485 200.735 99.9019V100.196H198.371V99.942H198.366ZM202.596 102.577C202.392 102.661 202.208 102.725 202.043 102.763C201.509 102.88 201.127 103.076 200.899 103.351C200.671 103.625 200.556 103.998 200.556 104.467C200.556 104.872 200.632 105.217 200.784 105.506C200.937 105.793 201.191 105.936 201.546 105.936C201.724 105.936 201.908 105.907 202.099 105.847C202.29 105.788 202.464 105.694 202.622 105.563C202.781 105.433 202.912 105.264 203.013 105.054C203.114 104.845 203.166 104.597 203.166 104.309V102.233C202.99 102.377 202.8 102.492 202.596 102.577Z" fill="white"/>
<path d="M210.067 96.9668V98.0824H210.104C210.395 97.5869 210.722 97.2299 211.085 97.0147C211.447 96.7996 211.894 96.692 212.428 96.692C213.508 96.692 214.302 97.126 214.811 97.9941C215.319 98.8622 215.573 100.275 215.573 102.234C215.573 104.193 215.319 105.597 214.811 106.446C214.302 107.295 213.508 107.719 212.428 107.719C211.933 107.719 211.511 107.625 211.161 107.435C210.812 107.247 210.498 106.941 210.218 106.525H210.18V110.154L207.55 110.893V96.9668H210.067ZM210.438 104.831C210.61 105.413 210.988 105.702 211.573 105.702C212.144 105.702 212.516 105.413 212.688 104.831C212.86 104.249 212.946 103.385 212.946 102.234C212.946 101.086 212.86 100.22 212.688 99.6398C212.516 99.0598 212.144 98.768 211.573 98.768C210.988 98.768 210.61 99.0581 210.438 99.6398C210.266 100.222 210.18 101.086 210.18 102.234C210.18 103.385 210.266 104.249 210.438 104.831Z" fill="white"/>
<path d="M219.806 93.3621V95.6741H217.175V93.3621H219.806ZM219.806 96.9667V107.506H217.175V96.9667H219.806Z" fill="white"/>
<path d="M224.858 93.95V96.9668H226.383V98.8084H224.858V104.508C224.858 104.927 224.918 105.223 225.039 105.399C225.161 105.576 225.411 105.664 225.792 105.664C225.893 105.664 225.996 105.66 226.097 105.655C226.198 105.649 226.293 105.639 226.383 105.626V107.506C226.089 107.506 225.807 107.516 225.534 107.535C225.262 107.554 224.972 107.564 224.667 107.564C224.159 107.564 223.742 107.527 223.419 107.456C223.096 107.385 222.847 107.241 222.675 107.026C222.504 106.811 222.386 106.527 222.322 106.173C222.259 105.82 222.227 105.376 222.227 104.84V98.8065H220.893V96.9649H222.227V94.6202L224.858 93.95Z" fill="white"/>
<path d="M227.278 99.942C227.278 99.3275 227.373 98.815 227.564 98.4039C227.754 97.9929 228.012 97.6587 228.335 97.4053C228.659 97.1518 229.04 96.9675 229.479 96.8561C229.918 96.7446 230.383 96.6891 230.88 96.6891C231.667 96.6891 232.304 96.7677 232.786 96.9232C233.268 97.0807 233.644 97.3017 233.911 97.5896C234.178 97.8777 234.359 98.2194 234.455 98.619C234.55 99.0184 234.597 99.4504 234.597 99.9211V105.465C234.597 105.963 234.619 106.347 234.664 106.621C234.709 106.896 234.795 107.19 234.922 107.503H232.407C232.317 107.334 232.252 107.153 232.207 106.965C232.162 106.775 232.121 106.591 232.084 106.406H232.046C231.742 106.955 231.389 107.311 230.989 107.474C230.589 107.637 230.071 107.72 229.436 107.72C228.978 107.72 228.591 107.637 228.274 107.474C227.956 107.311 227.702 107.086 227.511 106.798C227.321 106.51 227.181 106.187 227.093 105.828C227.003 105.469 226.96 105.114 226.96 104.76C226.96 104.265 227.01 103.837 227.113 103.478C227.214 103.119 227.371 102.811 227.58 102.558C227.79 102.304 228.057 102.091 228.38 101.92C228.703 101.751 229.096 101.599 229.552 101.469L231.039 101.058C231.433 100.954 231.706 100.81 231.859 100.628C232.013 100.445 232.087 100.176 232.087 99.825C232.087 99.4198 231.996 99.1029 231.811 98.8744C231.626 98.6458 231.312 98.5307 230.867 98.5307C230.46 98.5307 230.155 98.6556 229.951 98.9031C229.748 99.1508 229.647 99.485 229.647 99.9019V100.196H227.283V99.942H227.278ZM231.51 102.577C231.306 102.661 231.121 102.725 230.957 102.763C230.423 102.88 230.041 103.076 229.813 103.351C229.585 103.625 229.469 103.998 229.469 104.467C229.469 104.872 229.546 105.217 229.697 105.506C229.851 105.793 230.105 105.936 230.46 105.936C230.637 105.936 230.822 105.907 231.013 105.847C231.204 105.788 231.377 105.694 231.536 105.563C231.695 105.433 231.826 105.264 231.927 105.054C232.028 104.845 232.08 104.597 232.08 104.309V102.233C231.902 102.377 231.712 102.492 231.51 102.577Z" fill="white"/>
<path d="M239.19 93.5197V107.506H236.559V94.1916L239.19 93.5197Z" fill="white"/>
<path d="M109.673 128C102.423 128 95.502 125.087 90.3597 119.804C85.2176 114.521 82.3848 107.406 82.3848 99.9545C82.3848 92.5034 85.2193 85.3884 90.3597 80.1054C95.5003 74.8223 102.423 71.84 109.673 71.84C116.923 71.84 123.845 74.7532 128.987 80.0363C134.129 85.3192 136.962 92.4343 136.962 99.8854C136.962 107.337 134.127 114.45 128.987 119.735C123.846 125.087 116.991 128 109.673 128ZM109.673 75.7018C103.412 75.7018 97.4791 78.2081 93.0617 82.7478C88.579 87.3548 86.2059 93.3829 86.2059 99.8202C86.2059 106.257 88.6445 112.352 93.0617 116.892C97.5444 121.499 103.41 123.938 109.673 123.938C115.937 123.938 121.868 121.432 126.285 116.892C130.768 112.285 133.141 106.257 133.141 99.8202C133.141 93.3829 130.702 87.2876 126.285 82.7478C121.87 78.2081 116.002 75.7018 109.673 75.7018Z" fill="white"/>
<path d="M125.89 106.864L125.627 107.338C123.848 110.726 121.407 113.299 118.178 115.129C116.465 116.145 114.817 116.687 113.63 116.957V83.22C114.817 83.558 116.4 84.1014 118.178 85.0482C121.342 86.8764 123.848 89.4516 125.627 92.8393L125.89 93.3136L128.79 92.0269L128.461 91.418C125.825 86.4731 122.265 83.6271 119.761 82.2041C116.992 80.6465 114.355 79.9687 113.169 79.7652C111.653 79.4944 110.532 79.4944 110.532 79.4944V120.616L112.246 120.48C112.378 120.48 115.805 120.141 119.761 117.904C122.332 116.481 125.825 113.704 128.461 108.69L128.79 108.149L125.89 106.864Z" fill="white"/>
<path d="M105.655 79.9689V117.092C104.403 116.754 102.359 116.143 100.317 114.857C97.4168 113.096 95.3072 110.657 93.7918 107.54C93.7265 107.473 93.7265 107.473 93.7265 107.337L93.4629 106.862L90.6284 108.149C90.8265 108.487 90.9573 108.827 91.0898 109.165C93.1996 113.365 96.1649 116.007 98.6708 117.634C102.89 120.276 106.646 120.614 107.042 120.681L108.69 120.818V80.3761V80.2398V79.6309C108.819 79.6309 107.038 79.6309 105.655 79.9689Z" fill="white"/>
</svg>
