<svg width="322" height="200" viewBox="0 0 322 200" fill="none" xmlns="http://www.w3.org/2000/svg">
<path fill-rule="evenodd" clip-rule="evenodd" d="M71 99.9261V109.845H73.3103H75.6206L75.6635 102.225L75.7064 94.6035L79.9348 102.184L84.1633 109.765L86.1403 109.81L88.1175 109.855L92.3156 102.295L96.5138 94.7356L96.5567 102.291L96.5996 109.845H98.9925H101.385V99.9231V90.0006L97.7267 90.044L94.0681 90.0874L90.2133 96.9421C88.0931 100.712 86.3025 103.813 86.2343 103.832C86.1659 103.852 84.3638 100.75 82.2294 96.9381L78.3486 90.0081L74.6743 90.0074L71 90.0068V99.9261ZM111.294 99.9261V109.845H113.771H116.248V99.9261V90.0068H113.771H111.294V99.9261ZM125.495 92.0158V94.0248L133.628 94.0723C141.039 94.1155 141.82 94.1455 142.42 94.4097C143.295 94.795 143.805 95.2734 144.174 96.0552C144.737 97.2469 144.473 98.6292 143.51 99.5263C142.42 100.542 142.424 100.541 133.546 100.611L125.495 100.674V105.26V109.845H127.972H130.45V107.184V104.523H134.548H138.647L141.469 107.184L144.291 109.845H147.016H149.742L146.786 106.997L143.829 104.15L144.712 103.799C147.283 102.779 148.742 101 149.157 98.3827C149.658 95.219 148.129 92.3223 145.253 90.9874C143.278 90.0711 142.513 90.0068 133.594 90.0068H125.495V92.0158ZM161.495 98.9842C158.544 103.925 155.882 108.393 155.58 108.911L155.031 109.854L157.616 109.809L160.201 109.765L164.87 102.231L169.539 94.6974L174.213 102.271L178.887 109.845H181.494H184.101L183.119 108.192C182.578 107.283 179.924 102.837 177.221 98.3132L172.305 90.0874L169.584 90.0437L166.862 90L161.495 98.9842ZM190.725 99.9261V109.845H193.035H195.345L195.388 103L195.431 96.1544L203.028 102.995L210.624 109.835L212.812 109.84L215 109.845V99.9261V90.0068H212.607H210.215L210.172 96.4787L210.128 102.95L202.862 96.4832L195.596 90.0158L193.161 90.0113L190.725 90.0068V99.9261ZM228.128 99.1419C225.131 104.164 222.467 108.629 222.209 109.063L221.738 109.854L224.337 109.809L226.936 109.765L231.533 102.347C234.062 98.2668 236.187 94.9119 236.258 94.8916C236.328 94.8713 238.464 98.2276 241.004 102.35L245.625 109.845H248.232H250.841L250.384 109.07C250.133 108.643 247.474 104.181 244.477 99.1545L239.028 90.015L236.303 90.0129L233.578 90.011L228.128 99.1419Z" fill="white"/>
</svg>
