<svg width="322" height="200" viewBox="0 0 322 200" fill="none" xmlns="http://www.w3.org/2000/svg">
<path d="M161.169 64.4546C170.442 64.4546 179.714 64.4663 188.987 64.4349C189.872 64.4308 190.126 64.6478 190.126 65.5605C190.098 84.1168 190.096 102.671 190.128 121.227C190.13 122.199 189.856 122.402 188.926 122.4C170.446 122.373 151.966 122.371 133.486 122.4C132.546 122.402 132.289 122.179 132.29 121.216C132.32 102.693 132.324 84.1698 132.287 65.6471C132.283 64.6043 132.599 64.4308 133.547 64.4349C142.754 64.4682 151.96 64.4546 161.169 64.4546ZM163.781 93.4569C163.781 92.9325 163.781 92.4062 163.781 91.8818C163.781 86.5298 163.767 81.1794 163.797 75.8272C163.8 75.1017 163.627 74.8434 162.874 74.8929C161.863 74.9598 160.841 74.9716 159.829 74.8907C158.884 74.8158 158.567 75.0446 158.577 76.0895C158.634 82.6876 158.606 89.2876 158.606 95.8857C158.606 100.909 158.618 105.932 158.592 110.955C158.589 111.625 158.742 111.889 159.454 111.848C160.467 111.789 161.484 111.84 162.498 111.832C163.936 111.82 163.777 111.992 163.777 110.594C163.783 104.881 163.781 99.1679 163.781 93.4569ZM175.32 87.61C175.32 83.6692 175.304 79.7265 175.334 75.7859C175.34 75.1077 175.167 74.8612 174.463 74.8929C173.284 74.9481 172.102 74.9459 170.924 74.8929C170.267 74.8631 170.088 75.0899 170.09 75.7247C170.106 83.608 170.108 91.4915 170.088 99.3729C170.086 100.035 170.252 100.319 170.964 100.288C172.108 100.236 173.259 100.234 174.403 100.29C175.147 100.325 175.342 100.065 175.336 99.3335C175.3 95.4282 175.32 91.5191 175.32 87.61ZM147.163 87.531C147.163 91.4718 147.183 95.4105 147.146 99.3513C147.14 100.095 147.356 100.327 148.088 100.292C149.233 100.236 150.381 100.254 151.526 100.286C152.114 100.301 152.32 100.108 152.318 99.4991C152.301 91.5527 152.301 83.608 152.32 75.6616C152.322 75.0388 152.104 74.879 151.524 74.8986C150.411 74.9361 149.293 74.9618 148.184 74.8929C147.378 74.8415 147.132 75.0722 147.142 75.91C147.189 79.7817 147.161 83.6555 147.163 87.531Z" fill="white"/>
<path d="M188.452 135.094C187.648 135.335 187.166 135.151 186.833 134.532C186.649 134.189 186.356 133.903 186.169 133.56C185.848 132.969 185.388 132.724 184.727 132.827C184.568 132.851 184.401 132.831 184.237 132.831C182.636 132.831 182.64 132.831 182.599 134.39C182.589 134.751 182.748 135.216 182.082 135.198C181.437 135.183 181.566 134.725 181.563 134.361C181.551 132.852 181.58 131.342 181.549 129.834C181.535 129.225 181.761 129.036 182.349 129.05C183.722 129.081 185.099 129.062 186.472 129.06C187.443 129.058 188.1 129.503 188.358 130.451C188.604 131.356 188.285 132.111 187.49 132.537C186.971 132.817 187.018 133.018 187.3 133.403C187.681 133.925 188.031 134.471 188.452 135.094ZM184.788 131.904C185.278 131.904 185.766 131.9 186.255 131.906C186.928 131.914 187.469 131.656 187.479 130.94C187.486 130.229 186.959 129.943 186.283 129.941C185.337 129.939 184.389 129.982 183.447 129.925C182.735 129.882 182.619 130.168 182.573 130.818C182.508 131.748 182.845 132.034 183.712 131.914C184.064 131.865 184.428 131.904 184.788 131.904Z" fill="white"/>
<path d="M150.875 133.985C150.875 132.459 150.865 131.193 150.881 129.927C150.885 129.573 150.723 129.08 151.371 129.074C152.014 129.07 151.874 129.551 151.876 129.916C151.886 131.359 151.892 132.802 151.87 134.245C151.864 134.566 152.078 135.047 151.577 135.163C151.103 135.272 150.631 135.244 150.238 134.805C149.057 133.49 147.842 132.204 146.638 130.911C146.489 130.752 146.324 130.608 145.979 130.276C145.979 131.755 145.993 133.013 145.972 134.268C145.966 134.639 146.192 135.207 145.46 135.187C144.733 135.167 144.99 134.592 144.982 134.233C144.953 132.823 144.959 131.414 144.98 130.002C144.986 129.683 144.786 129.204 145.297 129.097C145.773 128.999 146.231 129.011 146.63 129.458C147.848 130.828 149.113 132.155 150.359 133.498C150.448 133.594 150.546 133.675 150.875 133.985Z" fill="white"/>
<path d="M172.841 135.194C172.023 135.194 171.205 135.178 170.389 135.2C169.918 135.212 169.663 135.103 169.671 134.553C169.696 132.946 169.694 131.34 169.671 129.733C169.663 129.209 169.881 129.049 170.369 129.053C172.037 129.067 173.705 129.055 175.374 129.061C175.687 129.063 176.071 129.002 176.061 129.518C176.051 130.055 175.642 129.927 175.349 129.928C174.041 129.942 172.731 129.966 171.423 129.922C170.766 129.901 170.668 130.212 170.678 130.755C170.687 131.259 170.695 131.665 171.388 131.626C172.137 131.584 172.892 131.616 173.643 131.622C173.982 131.624 174.318 131.624 174.295 132.123C174.275 132.562 173.964 132.546 173.671 132.55C172.918 132.558 172.164 132.59 171.415 132.546C170.752 132.509 170.67 132.856 170.68 133.392C170.687 133.903 170.713 134.273 171.399 134.252C172.707 134.208 174.015 134.234 175.325 134.244C175.657 134.246 176.09 134.121 176.072 134.721C176.055 135.3 175.634 135.184 175.296 135.188C174.477 135.202 173.659 135.194 172.841 135.194Z" fill="white"/>
<path d="M120.708 132.089C120.708 131.336 120.741 130.579 120.696 129.828C120.661 129.207 120.922 129.038 121.499 129.05C122.903 129.077 124.311 129.036 125.715 129.069C126.878 129.097 127.554 129.809 127.558 130.917C127.562 132.011 126.868 132.773 125.747 132.819C124.702 132.86 123.654 132.862 122.61 132.819C121.972 132.791 121.709 132.998 121.786 133.647C121.823 133.97 121.778 134.301 121.794 134.628C121.815 135.054 121.626 135.208 121.209 135.2C120.818 135.192 120.702 135.003 120.706 134.648C120.716 133.795 120.71 132.943 120.708 132.089ZM123.953 131.904C124.443 131.904 124.93 131.902 125.42 131.904C126.093 131.908 126.62 131.664 126.62 130.926C126.62 130.187 126.079 129.945 125.418 129.941C124.472 129.935 123.526 129.978 122.582 129.925C121.898 129.886 121.805 130.189 121.768 130.784C121.715 131.65 121.945 132.066 122.877 131.914C123.227 131.857 123.593 131.904 123.953 131.904Z" fill="white"/>
<path d="M135.538 129.079C136.067 128.992 136.36 129.176 136.59 129.629C137.405 131.232 138.272 132.805 139.094 134.404C139.204 134.619 139.574 134.926 139.171 135.141C138.913 135.277 138.418 135.338 138.303 134.969C137.837 133.473 136.64 133.836 135.585 133.818C135.194 133.81 134.797 133.852 134.411 133.808C133.811 133.741 133.412 133.938 133.198 134.522C133.121 134.731 133.001 134.958 132.832 135.09C132.59 135.281 132.244 135.275 131.998 135.125C131.713 134.952 131.976 134.723 132.071 134.542C132.93 132.89 133.802 131.244 134.659 129.59C134.862 129.199 135.113 128.947 135.538 129.079ZM135.725 130.159C135.322 130.282 135.257 130.638 135.127 130.92C134.848 131.531 134.045 132.247 134.382 132.702C134.73 133.173 135.721 132.809 136.429 132.86C136.939 132.898 137.098 132.726 136.828 132.241C136.449 131.555 136.093 130.855 135.725 130.159Z" fill="white"/>
<path d="M201.271 134.788C201.338 135.029 201.29 135.165 201.139 135.172C200.826 135.188 200.496 135.297 200.232 134.977C199.92 134.597 199.988 133.854 199.31 133.834C198.1 133.8 196.889 133.81 195.681 133.869C195.329 133.887 195.25 134.337 195.136 134.628C194.926 135.169 194.475 135.366 194.051 135.147C193.559 134.895 194.059 134.54 194.19 134.277C194.961 132.759 195.782 131.267 196.549 129.747C196.779 129.29 197.03 129.044 197.581 129.04C198.138 129.036 198.386 129.292 198.616 129.743C199.42 131.319 200.26 132.874 201.086 134.437C201.163 134.583 201.237 134.727 201.271 134.788ZM197.597 129.96C197.123 130.853 196.761 131.569 196.368 132.265C196.088 132.758 196.265 132.884 196.759 132.864C197.31 132.844 197.862 132.848 198.413 132.862C198.921 132.874 199.068 132.72 198.795 132.237C198.413 131.561 198.069 130.863 197.597 129.96Z" fill="white"/>
<path d="M160.836 129.063C161.75 129.063 162.665 129.061 163.581 129.065C163.884 129.067 164.181 129.077 164.178 129.515C164.173 129.97 163.855 129.923 163.564 129.936C163.53 129.938 163.499 129.936 163.466 129.938C161.322 130.035 161.322 130.035 161.322 132.188C161.322 133.006 161.316 133.826 161.322 134.644C161.326 134.995 161.215 135.192 160.822 135.2C160.409 135.208 160.23 135.06 160.234 134.632C160.248 133.355 160.202 132.075 160.252 130.8C160.279 130.098 160.03 129.865 159.355 129.93C158.869 129.978 158.376 129.934 157.886 129.936C157.593 129.936 157.376 129.873 157.382 129.505C157.388 129.144 157.604 129.069 157.893 129.069C158.873 129.067 159.855 129.069 160.834 129.069C160.836 129.065 160.836 129.063 160.836 129.063Z" fill="white"/>
</svg>
