<svg width="322" height="200" viewBox="0 0 322 200" fill="none" xmlns="http://www.w3.org/2000/svg">
<path d="M125.737 135.721L124.382 136.525C124.198 136.197 123.943 135.905 123.65 135.685C122.991 135.321 122.186 135.393 121.563 135.869C121.27 136.088 121.088 136.452 121.124 136.853C121.124 137.401 121.527 137.801 122.333 138.13L123.431 138.566C124.2 138.822 124.859 139.295 125.409 139.879C125.848 140.427 126.069 141.083 126.032 141.776C126.069 142.724 125.702 143.636 125.043 144.256C124.384 144.913 123.431 145.277 122.515 145.241C121.636 145.277 120.795 144.985 120.135 144.401C119.476 143.745 119.074 142.905 118.962 142.031L120.647 141.667C120.683 142.14 120.792 142.615 121.049 143.016C121.708 143.819 122.918 143.964 123.722 143.308C123.759 143.272 123.795 143.235 123.831 143.199C124.161 142.835 124.382 142.36 124.345 141.887C124.345 141.703 124.309 141.486 124.273 141.303C124.2 141.119 124.127 140.938 123.979 140.83C123.834 140.685 123.686 140.538 123.504 140.393C123.284 140.248 123.029 140.137 122.772 140.029L121.747 139.592C120.244 138.972 119.476 138.023 119.476 136.783C119.476 135.982 119.806 135.215 120.429 134.705C121.088 134.121 121.931 133.829 122.809 133.865C124.016 133.897 125.005 134.517 125.737 135.721Z" fill="white"/>
<path d="M133.354 140.645V145.095H131.67V134.118H133.539C134.234 134.082 134.93 134.154 135.625 134.301C136.101 134.448 136.542 134.666 136.871 135.03C137.494 135.65 137.86 136.49 137.824 137.363C137.86 138.276 137.494 139.151 136.798 139.769C136.03 140.389 135.041 140.718 134.052 140.681H133.357V140.645H133.354ZM133.354 139.113H133.977C135.516 139.113 136.285 138.529 136.285 137.363C136.285 136.234 135.48 135.65 133.905 135.65H133.354V139.113Z" fill="white"/>
<path d="M160.718 140.425L164.126 145.092H162.075L158.924 140.606H158.631V145.092H156.947V134.115H158.888C160.352 134.115 161.416 134.371 162.039 134.916C162.734 135.5 163.137 136.412 163.1 137.322C163.1 138.051 162.88 138.746 162.441 139.327C162.036 139.88 161.413 140.28 160.718 140.425ZM158.629 139.149H159.14C160.716 139.149 161.52 138.565 161.52 137.36C161.52 136.231 160.752 135.684 159.213 135.684H158.627V139.149H158.629Z" fill="white"/>
<path d="M172.365 135.65V145.094H170.68V135.65H168.152L166.979 134.081H176.063L174.89 135.65H172.365Z" fill="white"/>
<path d="M193.974 145.094V133.352L202.033 141.74V134.119H203.681V145.789L195.623 137.401V145.096H193.974V145.094Z" fill="white"/>
<path d="M187.091 145.094H188.923L183.647 133.424L178.191 145.094H179.985L183.647 137.142L186.359 143.416L187.091 145.094Z" fill="white"/>
<path d="M149.986 145.094H151.78L146.542 133.424L141.048 145.094H142.844L146.506 137.142L149.216 143.416L149.986 145.094Z" fill="white"/>
<path d="M145.87 89.6132L142.398 93.2093L152.669 91.589L145.87 89.6132Z" fill="white"/>
<path d="M140.84 80.2338L145.584 89.0492L147.143 83.2666L140.84 80.2338Z" fill="white"/>
<path d="M141.547 94.0554L141.336 94.3384L138.644 104.704L152.315 92.2224L141.547 94.0554Z" fill="white"/>
<path d="M148.135 69.7246L140.556 79.3864L148.774 83.2659L157.98 85.0288L148.135 69.7246Z" fill="white"/>
<path d="M141.266 93.352L144.594 90.0365L140.132 90.8829L141.266 93.352Z" fill="white"/>
<path d="M145.018 64.649L140.344 78.6135L147.853 69.0218L145.018 64.649Z" fill="white"/>
<path d="M148.276 68.5284L159.54 54.0706L145.089 64.2257L145.373 64.0855L148.276 68.5284Z" fill="white"/>
<path d="M153.448 120.502V92.2224L138.715 105.551L153.448 120.502Z" fill="white"/>
<path d="M140.059 80.2338V90.2487L144.876 89.3319L140.059 80.2338Z" fill="white"/>
<path d="M175.051 89.6132L168.395 91.589L178.593 93.2093L175.051 89.6132Z" fill="white"/>
<path d="M175.333 89.0492L180.15 80.2338L173.776 83.2666L175.333 89.0492Z" fill="white"/>
<path d="M179.726 94.3384L179.372 94.0554L168.605 92.2224L182.277 104.704L179.726 94.3384Z" fill="white"/>
<path d="M162.018 85.24L172.361 69.0914L160.531 54L148.631 69.0914L158.901 85.24L155.714 94.1255L160.531 96.7351L165.278 94.1255L162.018 85.24Z" fill="white"/>
<path d="M172.786 69.7246L162.94 85.0288L172.29 83.2659L180.365 79.3864L172.786 69.7246Z" fill="white"/>
<path d="M180.789 90.8829L176.399 90.0365L179.728 93.352L180.789 90.8829Z" fill="white"/>
<path d="M180.646 78.6135L176.042 64.649L173.208 69.0218L180.646 78.6135Z" fill="white"/>
<path d="M175.619 64.0855L175.831 64.2257L161.452 54.0706L172.714 68.5284L175.619 64.0855Z" fill="white"/>
<path d="M167.544 120.502L182.206 105.551L167.544 92.2224V120.502Z" fill="white"/>
<path d="M180.931 90.2487V80.2338L176.044 89.3319L180.931 90.2487Z" fill="white"/>
</svg>
